<?xml version="1.0" encoding="UTF-8"?>
<!-- Generator: visioncortex VTracer 0.6.3 -->
<svg version="1.1" xmlns="http://www.w3.org/2000/svg" width="1280" height="1280">
<path d="M0 0 C3.52 2.82 4.97 4.72 6 9 C6.99 9.43 6.99 9.43 8 9.88 C8.99 10.43 8.99 10.43 10 11 C10.75 14.12 10.75 14.12 11 17 C12.49 17.5 12.49 17.5 14 18 C18.04 21.1 19.71 25.23 21.75 29.76 C22.94 32.29 22.94 32.29 26 34 C26 34.99 26 35.98 26 37 C27.49 37.5 27.49 37.5 29 38 C30.19 41.06 30.19 41.06 31 44 C31.66 44 32.32 44 33 44 C33.4 44.93 33.4 44.93 33.81 45.88 C34.96 48.3 34.96 48.3 38 50 C38.62 54.76 38.72 56.88 36.12 60.94 C31.86 63.75 28.03 63.89 23 64 C22.63 65.61 22.63 65.61 22.25 67.25 C21 71.01 20.12 72.64 17 75 C16.01 75 15.02 75 14 75 C13.01 76.98 13.01 76.98 12 79 C8.35 79.18 4.71 79.28 1.06 79.38 C0.04 79.43 -0.98 79.48 -2.03 79.53 C-8.85 79.66 -12.93 78.53 -18.46 74.49 C-19.22 73.75 -19.22 73.75 -20 73 C-20 72.34 -20 71.68 -20 71 C-20.66 71 -21.32 71 -22 71 C-21.94 72.27 -21.88 73.53 -21.82 74.84 C-21.48 85.45 -21.33 92.88 -28.83 100.98 C-33.2 105.17 -37.28 107.16 -43 109 C-43.99 109.66 -44.98 110.32 -46 111 C-48.56 111.3 -48.56 111.3 -51.44 111.31 C-52.38 111.33 -53.33 111.35 -54.31 111.36 C-57.42 110.94 -58.63 109.98 -61 108 C-62.58 107.5 -62.58 107.5 -64.19 107 C-65.12 106.67 -66.04 106.34 -67 106 C-67.33 105.01 -67.66 104.02 -68 103 C-68.6 102.73 -69.2 102.46 -69.81 102.19 C-73.06 100.43 -74.27 98.21 -76 95 C-76.25 91.62 -76.25 91.62 -76 89 C-74.51 88.5 -74.51 88.5 -73 88 C-73 87.34 -73 86.68 -73 86 C-71.1 85.05 -69.2 84.1 -67.29 83.15 C-65.81 82.41 -64.34 81.66 -62.86 80.91 C-53.16 76 -53.16 76 -49 76 C-49 75.34 -49 74.68 -49 74 C-47.02 73.5 -47.02 73.5 -45 73 C-45 72.34 -45 71.68 -45 71 C-53.41 71.5 -53.41 71.5 -62 72 C-62.33 72.99 -62.66 73.98 -63 75 C-63.66 75 -64.32 75 -65 75 C-65.66 76.32 -66.32 77.64 -67 79 C-68.79 79.05 -70.58 79.09 -72.38 79.12 C-73.37 79.15 -74.37 79.17 -75.4 79.2 C-78 79 -78 79 -80 77 C-80.63 73.03 -80.28 71.41 -78 68.06 C-77.02 67.02 -76.02 66 -75 65 C-74.08 64.08 -74.08 64.08 -73.13 63.14 C-68.93 59.18 -65.73 57.27 -60 56 C-59.07 55.46 -58.14 54.93 -57.19 54.38 C-51.75 52.03 -46.74 52.01 -41.17 54.02 C-38.63 55.22 -36.28 56.36 -34 58 C-33.67 58.99 -33.34 59.98 -33 61 C-32.01 61.33 -31.02 61.66 -30 62 C-28.16 63.88 -26.63 65.93 -25 68 C-25 66.68 -25 65.36 -25 64 C-25.99 63.34 -26.98 62.68 -28 62 C-28.34 59.94 -28.34 59.94 -28.29 57.43 C-28.28 56.09 -28.28 56.09 -28.26 54.71 C-28.24 53.78 -28.21 52.84 -28.19 51.88 C-28.17 50.46 -28.17 50.46 -28.15 49.01 C-28.11 46.67 -28.06 44.34 -28 42 C-27.01 41.67 -26.02 41.34 -25 41 C-24.67 39.85 -24.34 38.69 -24 37.5 C-23.67 36.35 -23.34 35.19 -23 34 C-22.01 33.67 -21.02 33.34 -20 33 C-19.73 32.36 -19.46 31.72 -19.19 31.06 C-17.46 28.06 -15.23 27.94 -12 27 C-11.34 26.34 -10.68 25.68 -10 25 C-7.38 24.88 -7.38 24.88 -5 25 C-5.99 23.33 -5.99 23.33 -7 21.62 C-9 18.25 -9 18.25 -9 16 C-9.66 16 -10.32 16 -11 16 C-12.86 13.41 -14.57 10.86 -16 8 C-7.28 -1.21 -7.28 -1.21 0 0 Z M-8.25 40.75 C-10.94 45.75 -10.95 50.45 -10 56 C-7.15 60.1 -3.65 62.22 1 64 C4.86 63.75 8.48 61.51 12 60 C12.14 57.44 12.23 54.88 12.31 52.31 C12.35 51.59 12.4 50.87 12.44 50.13 C12.53 46.06 12.31 44.43 9.86 41.02 C4.33 37.11 -2.42 37.61 -8.25 40.75 Z M-45 86 C-45.85 86.16 -46.69 86.33 -47.56 86.5 C-50.4 87.08 -51.05 87.96 -53 90 C-55.19 90.69 -55.19 90.69 -57 91 C-57 91.66 -57 92.32 -57 93 C-54.98 94.95 -53.52 95.9 -50.75 96.44 C-46.65 95.78 -43.24 94.67 -40 92 C-38.49 89.09 -37.66 86.2 -37 83 C-41.48 83 -41.68 83.49 -45 86 Z " fill="#F0F3F2" transform="translate(851,886)"/>
<path d="M0 0 C1.32 0 2.64 0 4 0 C4 0.66 4 1.32 4 2 C5.22 2.1 6.43 2.21 7.69 2.31 C10.54 2.66 11.9 2.94 14.38 4.5 C17.81 6.46 20.79 6.45 24.7 6.59 C27.46 7.08 28.13 8 30 10 C32.33 10.35 34.67 10.68 37 11 C37.78 11.5 38.57 11.99 39.38 12.5 C42.62 14.35 45.23 14.44 48.91 14.59 C51 15 51 15 52.49 16.5 C54.93 18.92 57.65 18.42 60.94 18.5 C61.62 18.66 62.3 18.83 63 19 C64.09 20.97 64.09 20.97 65 23 C66.49 23.5 66.49 23.5 68 24 C69.28 26.57 69.2 28.51 69.25 31.38 C69.28 32.33 69.3 33.29 69.33 34.27 C68.95 37.43 68.17 38.72 66 41 C63.5 42.12 63.5 42.12 61 43 C60.01 43.66 59.02 44.32 58 45 C55.97 45.32 53.98 45.44 51.94 45.56 C49.9 45.83 49.9 45.83 48.66 47.47 C46.17 49.76 43.75 49.68 40.44 50.06 C35.69 50.4 35.69 50.4 32 53 C28.88 53.12 28.88 53.12 26 53 C26 53.66 26 54.32 26 55 C26.93 54.94 27.86 54.88 28.81 54.81 C32 55 32 55 33.32 56.45 C35.72 58.67 37.86 58.66 41.06 59.06 C46.79 59.79 46.79 59.79 49 62 C51.32 62.4 53.66 62.74 56 63 C56.5 64.49 56.5 64.49 57 66 C57.61 66.03 58.23 66.05 58.86 66.08 C60.08 66.16 60.08 66.16 61.31 66.25 C62.11 66.3 62.91 66.34 63.74 66.39 C66 67 66 67 67.76 68.64 C70.26 73.4 69.67 78.79 69 84 C67.19 87.25 67.19 87.25 64 89 C60.33 89.67 56.73 89.93 53 90 C52.5 91.49 52.5 91.49 52 93 C50.04 93.66 50.04 93.66 47.62 94.06 C44.3 94.63 42.91 95.06 40 97 C37.42 97.33 34.87 97.44 32.28 97.56 C31.53 97.7 30.77 97.85 30 98 C29.34 98.99 28.68 99.98 28 101 C25.69 101.66 25.69 101.66 23 102.06 C19.05 102.57 19.05 102.57 16 105 C13.62 105.41 13.62 105.41 10.88 105.62 C9.51 105.74 9.51 105.74 8.12 105.85 C7.42 105.9 6.72 105.95 6 106 C6 106.66 6 107.32 6 108 C4.01 108.38 2.01 108.71 0 109 C-2.04 106.96 -1.32 103.04 -1.38 100.25 C-1.41 99.53 -1.45 98.82 -1.49 98.08 C-1.55 94.13 -1.16 92.22 1.2 89.02 C4.19 86.87 5.51 86.41 9.12 86.38 C13.17 86.31 14.23 85.83 17 83 C19.38 82.34 19.38 82.34 22 81.94 C25.49 81.39 26.98 81.01 30 79 C32.26 78.59 32.26 78.59 34.69 78.38 C35.9 78.26 35.9 78.26 37.14 78.15 C37.75 78.1 38.37 78.05 39 78 C35.89 73.94 32.94 73.29 28.12 72.49 C26 72 26 72 23 70 C20.75 69.67 18.53 69.56 16.25 69.44 C13.52 68.91 12.21 67.66 10 66 C7.46 65.29 7.46 65.29 4.81 64.94 C2.14 64.53 2.14 64.53 0 64 C-1.64 60.72 -1.18 57.1 -1.19 53.5 C-1.2 52.71 -1.21 51.93 -1.22 51.12 C-1.23 49.08 -1.12 47.04 -1 45 C1.88 42.12 4.55 42.62 8.49 42.44 C11.42 41.93 12.68 40.79 15 39 C17.04 38.59 17.04 38.59 19.06 38.5 C22.88 38.44 22.88 38.44 24.37 36.53 C27.31 33.77 31.41 34.08 35.29 33.62 C38.33 33.25 38.33 33.25 40 30 C39.24 29.96 38.48 29.93 37.7 29.89 C36.71 29.82 35.71 29.76 34.69 29.69 C33.7 29.63 32.72 29.57 31.7 29.51 C28.64 28.93 28.08 28.17 26 26 C23.82 25.54 23.82 25.54 21.5 25.5 C17.67 25.35 16.65 24.66 14 22 C11.92 21.61 11.92 21.61 9.69 21.62 C5.93 21.26 2.91 20.68 0.02 18 C-2.41 13.24 -1.52 7.18 -1 2 C-0.67 1.34 -0.34 0.68 0 0 Z " fill="#F0F3F2" transform="translate(236,588)"/>
<path d="M0 0 C5.78 0.78 9.24 3.66 13 8 C13.37 9.99 13.7 11.99 14 14 C16.11 16.28 18.53 18.12 21 20 C24.27 22.67 24.9 23.51 25.75 27.75 C25.83 28.82 25.92 29.89 26 31 C26.99 31.33 27.98 31.66 29 32 C29.03 33.46 29.05 34.92 29.06 36.38 C29.07 37.19 29.09 38 29.1 38.84 C29 41 29 41 28 43 C29.03 42.79 30.06 42.59 31.12 42.38 C35.38 41.96 37.22 42.03 41 44 C43.53 46.52 45.78 49.21 48 52 C48.33 52.33 48.66 52.66 49 53 C50.24 67.37 50.24 67.37 47.73 72.68 C46.12 74.56 46.12 74.56 43 77 C42.34 77 41.68 77 41 77 C40.01 78.98 40.01 78.98 39 81 C38.34 81 37.68 81 37 81 C36.77 81.56 36.55 82.11 36.31 82.69 C34.64 85.63 32.45 87.68 30 90 C30.99 90.66 31.98 91.32 33 92 C32.5 96.4 31.03 98.79 28 102 C24.31 103.23 21.92 102.63 18.16 101.96 C15.91 101.76 15.91 101.76 14.43 103.45 C13.96 103.96 13.48 104.47 13 105 C9.66 105.5 7.22 105.73 4.25 103.95 C0.91 101.23 -0.81 99.46 -1.38 95.19 C-0.88 90.96 0.76 89.63 4 87 C4.66 87 5.32 87 6 87 C6 86.34 6 85.68 6 85 C5.01 84.67 4.02 84.34 3 84 C0.75 82.31 0.75 82.31 -1 80 C-1.08 76.1 -0.44 74.51 2.12 71.56 C5.9 69.51 7.92 69.84 12 71 C12.99 72.49 12.99 72.49 14 74 C17.32 73.45 20.16 72.86 23 71 C24.27 68.97 24.27 68.97 25 67 C25.66 67 26.32 67 27 67 C27.66 65.68 28.32 64.36 29 63 C29.66 63 30.32 63 31 63 C31.33 60.17 31.33 60.17 31 57 C30.36 56.38 29.72 55.76 29.06 55.12 C26.01 51.98 26.29 49.3 26 45 C25.77 45.58 25.55 46.15 25.31 46.75 C23.47 49.91 22.24 51.19 19 53 C13.08 53.93 7.72 53.91 2.5 50.75 C1.31 49.87 0.14 48.95 -1 48 C-2.14 47.07 -2.14 47.07 -3.31 46.12 C-5.54 43.32 -6.67 40.32 -8 37 C-8.66 36.01 -9.32 35.02 -10 34 C-11.32 34 -12.64 34 -14 34 C-14.49 38.05 -14.49 38.05 -14 42 C-12.37 43.93 -10.67 45.3 -8.63 46.77 C-7 48 -7 48 -6 50 C-5.2 50.43 -4.39 50.87 -3.56 51.31 C-1 53 -1 53 0.62 55.25 C1.05 58.39 0.71 59.16 -0.88 61.81 C-2.47 63.79 -3.52 64.82 -5.91 65.69 C-8.24 65.9 -9.79 65.77 -12 65 C-13.79 63.46 -15.09 61.84 -16.5 59.94 C-18.05 57.94 -19.67 56.47 -21.62 54.88 C-27.69 49.77 -29.65 45.68 -31 38 C-31.25 37.05 -31.5 36.1 -31.75 35.12 C-32 33 -32 33 -30 30 C-29.75 28.89 -29.5 27.77 -29.25 26.62 C-27.71 22.16 -25.75 20.77 -22 18 C-21.4 17.36 -20.8 16.72 -20.19 16.06 C-18.07 14.07 -16 12.64 -13.56 11.06 C-10.81 9.28 -8.39 7.56 -6.12 5.19 C-4 3 -4 3 -1 2 C-0.67 1.34 -0.34 0.68 0 0 Z M-2 25 C-2 25.66 -2 26.32 -2 27 C-1.01 27.5 -1.01 27.5 0 28 C1.12 30.06 1.12 30.06 2 32 C2.66 32 3.32 32 4 32 C4.33 32.99 4.66 33.98 5 35 C6.98 35 8.96 35 11 35 C12.31 31.06 11.24 28.88 10 25 C6.04 25 2.08 25 -2 25 Z " fill="#F0F3F2" transform="translate(348,820)"/>
<path d="M0 0 C1.16 -0.02 2.31 -0.03 3.5 -0.05 C4.47 0.07 5.44 0.19 6.44 0.31 C7.1 1.3 7.76 2.29 8.44 3.31 C10.76 4.02 13.09 4.68 15.44 5.31 C16.43 6.3 16.43 6.3 17.44 7.31 C18.2 7.56 18.96 7.81 19.75 8.06 C23.4 9.76 25.1 12.07 27.44 15.31 C27.81 16.64 28.15 17.97 28.44 19.31 C29.43 19.97 30.42 20.63 31.44 21.31 C32.1 23.15 32.1 23.15 32.5 25.25 C33.11 28.33 33.61 29.57 35.44 32.31 C35.77 38.65 35.77 38.65 34.44 41.31 C33.78 41.31 33.12 41.31 32.44 41.31 C32.33 42.55 32.23 43.79 32.12 45.06 C31.68 48.68 30.84 50.52 28.44 53.31 C28.15 54.12 27.86 54.92 27.56 55.75 C26.13 59.01 23.95 60.8 21.44 63.31 C20.4 65.3 19.4 67.3 18.44 69.31 C15.58 73.35 12.23 76.17 8.44 79.31 C6.62 81.47 6.62 81.47 5.44 83.31 C-0.66 83.19 -0.66 83.19 -3.05 80.86 C-4 79.63 -4.95 78.39 -5.9 77.15 C-8.33 74.46 -11.2 73.13 -14.39 71.49 C-18.54 69.24 -21.75 66.17 -25 62.75 C-28 59.9 -30.91 58.24 -34.56 56.31 C-34.56 55.65 -34.56 54.99 -34.56 54.31 C-35.12 54.27 -35.68 54.23 -36.25 54.19 C-39.17 53.08 -40.44 51.24 -42.32 48.81 C-43.85 46.96 -45.57 45.64 -47.56 44.31 C-47.13 38.85 -46.05 36.44 -42.56 32.31 C-41.1 30.31 -39.64 28.31 -38.19 26.31 C-34.93 21.94 -31.87 18.6 -27.56 15.31 C-26.56 13.98 -25.55 12.65 -24.56 11.31 C-23.9 11.31 -23.24 11.31 -22.56 11.31 C-22.23 10.32 -21.9 9.33 -21.56 8.31 C-17.86 4.72 -14.49 3.59 -9.56 2.31 C-5.99 -0.07 -4.24 0.01 0 0 Z M-9.56 21.31 C-10.59 21.64 -11.62 21.97 -12.69 22.31 C-14.11 22.81 -14.11 22.81 -15.56 23.31 C-15.89 24.3 -16.22 25.29 -16.56 26.31 C-17.55 26.64 -18.54 26.97 -19.56 27.31 C-20.79 30.32 -20.79 30.32 -21.56 33.31 C-22.22 33.31 -22.88 33.31 -23.56 33.31 C-24.68 36 -24.68 36 -24.56 39.31 C-23.01 41.14 -21.34 42.48 -19.42 43.92 C-17.63 45.26 -16.14 46.73 -14.56 48.31 C-11.56 50.44 -9.06 52.15 -5.56 53.31 C-3.96 54.94 -3.96 54.94 -2.38 56.88 C-1.58 57.84 -1.58 57.84 -0.77 58.82 C-0.37 59.31 0.03 59.8 0.44 60.31 C4.35 60.09 5.35 59.4 8.06 56.44 C8.85 55.41 9.63 54.38 10.44 53.31 C10.99 52.82 11.55 52.32 12.12 51.81 C14.06 49.6 14.58 47.1 15.44 44.31 C15.81 43.63 16.18 42.95 16.56 42.25 C17.69 39.74 17.79 38.03 17.44 35.31 C16.46 34.29 15.46 33.29 14.44 32.31 C14.13 31.34 13.82 30.37 13.5 29.38 C12.31 25.94 11.29 24.53 8.44 22.31 C6.45 21.6 4.45 20.93 2.44 20.31 C1.78 19.65 1.12 18.99 0.44 18.31 C-4.28 17.88 -6.43 17.77 -9.56 21.31 Z " fill="#F0F3F2" transform="translate(349.5625,374.6875)"/>
<path d="M0 0 C1.13 0 2.26 0 3.42 0 C4.7 0 5.98 -0 7.3 -0.01 C8.7 0 10.1 0.01 11.5 0.02 C12.93 0.02 14.36 0.02 15.79 0.02 C18.78 0.02 21.78 0.03 24.78 0.04 C28.63 0.06 32.47 0.06 36.32 0.06 C39.28 0.06 42.23 0.07 45.18 0.07 C46.6 0.08 48.02 0.08 49.44 0.08 C51.42 0.08 53.4 0.09 55.38 0.1 C57.07 0.11 57.07 0.11 58.8 0.11 C61.34 0.25 61.34 0.25 62.34 1.25 C62.47 2.67 62.53 4.1 62.56 5.53 C62.59 6.9 62.59 6.9 62.63 8.3 C62.7 12.5 62.76 16.7 62.8 20.91 C62.82 23.12 62.86 25.33 62.92 27.54 C63 30.74 63.03 33.93 63.06 37.12 C63.09 38.1 63.12 39.08 63.16 40.09 C63.13 47.85 60.41 51.6 55.34 57.25 C54.8 58.18 54.26 59.1 53.71 60.06 C50.65 64.93 46.66 66.63 41.34 68.25 C40.35 68.91 39.36 69.57 38.34 70.25 C35.04 70.68 31.72 70.57 28.4 70.56 C27.49 70.58 26.59 70.59 25.65 70.61 C24.78 70.61 23.9 70.61 23 70.61 C21.8 70.61 21.8 70.61 20.58 70.62 C17.81 70.16 16.5 68.99 14.34 67.25 C13.37 66.98 12.4 66.71 11.4 66.43 C7.28 64.84 6.02 62.73 3.34 59.25 C2.35 58.59 1.36 57.93 0.34 57.25 C-0.35 54.12 -0.35 54.12 -0.66 51.25 C-1.32 51.25 -1.98 51.25 -2.66 51.25 C-2.86 50.51 -3.05 49.78 -3.25 49.02 C-3.51 48.04 -3.77 47.07 -4.04 46.06 C-4.29 45.1 -4.55 44.13 -4.81 43.14 C-5.58 40.28 -5.58 40.28 -6.75 37.81 C-9.53 30.01 -7.83 21 -5.66 13.25 C-5.37 10.35 -5.17 7.47 -5.01 4.57 C-4.49 1.09 -3.46 0.32 0 0 Z M10.34 19.25 C10 22.78 10.01 26.33 9.96 29.87 C9.92 30.86 9.89 31.84 9.85 32.86 C9.77 39.69 10.63 43.21 15.34 48.25 C17.65 49.56 19.81 50.37 22.34 51.25 C22.67 51.58 23 51.91 23.34 52.25 C28.86 53.11 33.31 52.75 38.09 49.75 C39.54 48.62 40.95 47.46 42.34 46.25 C42.96 45.75 43.59 45.25 44.23 44.74 C48.35 40.6 48.67 36.56 48.79 30.95 C49.28 24.1 49.28 24.1 47.34 18.25 C44.68 18.15 42.05 18.11 39.4 18.11 C38.6 18.11 37.81 18.11 36.99 18.11 C35.3 18.11 33.62 18.11 31.94 18.12 C29.35 18.12 26.76 18.12 24.17 18.11 C22.54 18.11 20.91 18.11 19.27 18.11 C18.49 18.11 17.72 18.11 16.91 18.11 C13.33 17.79 13.33 17.79 10.34 19.25 Z " fill="#F0F3F2" transform="translate(982.6634674072266,618.7527618408203)"/>
<path d="M0 0 C6.99 0.12 6.99 0.12 9.62 2.41 C10.6 3.62 11.56 4.85 12.5 6.1 C14.04 8.05 15.64 9.5 17.56 11.06 C20.81 13.74 23.3 16.77 26 20 C27.24 21.02 28.49 22.02 29.75 23 C32.42 25.19 32.92 25.67 33.75 29.19 C33.83 30.12 33.91 31.04 34 32 C34.49 32.44 34.98 32.88 35.49 33.34 C38.13 36.24 37.4 39.61 37.29 43.34 C36.93 46.59 36.03 48.45 34 51 C33.32 52.27 33.32 52.27 32.62 53.56 C30.76 56.35 28.65 57.96 26 60 C25.34 60.99 24.68 61.98 24 63 C17.86 65.96 12.76 66.37 6 66 C5.96 67.02 5.93 68.05 5.89 69.11 C5.82 70.47 5.75 71.83 5.69 73.19 C5.66 73.86 5.64 74.53 5.62 75.23 C5.38 79.6 4.71 82.54 2 86 C-0.81 87.25 -0.81 87.25 -4 87 C-5.8 85.39 -7.18 83.7 -8.61 81.76 C-10.06 79.74 -10.06 79.74 -13 78 C-13.36 76.12 -13.36 76.12 -13.31 74 C-13.31 73.3 -13.3 72.6 -13.3 71.88 C-13 70 -13 70 -11 68 C-9.91 63.95 -9.48 60.17 -10 56 C-12.23 52.96 -14.81 50.98 -18 49 C-18.72 49.72 -19.44 50.44 -20.19 51.19 C-21.58 52.58 -21.58 52.58 -23 54 C-24.18 55.39 -24.18 55.39 -25.38 56.81 C-28 59 -28 59 -31.81 59.31 C-32.86 59.21 -33.92 59.11 -35 59 C-35.37 58.07 -35.37 58.07 -35.75 57.12 C-36.81 54.83 -36.81 54.83 -39.06 54.19 C-41 53 -41 53 -41.88 49.62 C-42.05 44.41 -40.96 43.06 -37.5 39.25 C-35 37 -35 37 -33 37 C-32.74 36.42 -32.47 35.84 -32.2 35.25 C-28.86 29.01 -23.37 24.45 -18 20 C-16.43 18.28 -14.94 16.5 -13.45 14.71 C-11.42 12.31 -9.32 10.13 -7 8 C-6.34 8 -5.68 8 -5 8 C-4.67 6.68 -4.34 5.36 -4 4 C-3.34 4 -2.68 4 -2 4 C-1.34 2.68 -0.68 1.36 0 0 Z M-2.38 29 C-3.05 29.86 -3.05 29.86 -3.74 30.73 C-4.84 32.14 -5.92 33.57 -7 35 C-5.44 39.45 -4.16 40.76 0 43 C0.33 43.66 0.66 44.32 1 45 C1.99 45.33 2.98 45.66 4 46 C4.66 46.99 5.32 47.98 6 49 C9.73 48.71 12.54 48.24 15.88 46.5 C18.48 43.43 19.03 41.35 19.27 37.38 C18.66 31.95 15.25 28.28 11.56 24.5 C5.08 20.71 1.63 23.62 -2.38 29 Z " fill="#F0F3F2" transform="translate(892,326)"/>
<path d="M0 0 C1.06 -0.02 2.12 -0.04 3.21 -0.06 C4.74 -0.07 4.74 -0.07 6.3 -0.08 C7.71 -0.09 7.71 -0.09 9.14 -0.11 C12.14 0.31 13.4 1.32 15.69 3.25 C16.51 3.56 17.34 3.87 18.19 4.19 C23.43 6.41 25.36 10.26 27.69 15.25 C28.18 15.75 28.18 15.75 28.69 16.25 C28.97 19.53 28.92 22.83 28.94 26.12 C28.96 27.05 28.98 27.97 29 28.93 C29.01 30.26 29.01 30.26 29.02 31.62 C29.02 32.43 29.03 33.25 29.04 34.09 C28.6 36.76 27.65 37.46 25.69 39.25 C25.4 40.26 25.11 41.27 24.81 42.31 C23.69 45.25 23.69 45.25 21.06 46.62 C20.28 46.83 19.5 47.04 18.69 47.25 C19.35 47.91 20.01 48.57 20.69 49.25 C20.23 55.71 20.23 55.71 17.69 58.25 C17.4 59.1 17.11 59.94 16.81 60.81 C15.69 63.25 15.69 63.25 14.01 63.99 C10.89 64.34 8.46 63.63 5.44 62.81 C4.36 62.53 3.28 62.24 2.17 61.94 C1.35 61.71 0.53 61.49 -0.31 61.25 C-0.31 60.59 -0.31 59.93 -0.31 59.25 C-2.95 58.92 -5.59 58.59 -8.31 58.25 C-8.64 57.26 -8.97 56.27 -9.31 55.25 C-10.36 55.07 -10.36 55.07 -11.43 54.88 C-12.34 54.72 -13.25 54.55 -14.19 54.38 C-15.09 54.21 -16 54.05 -16.93 53.88 C-19.31 53.25 -19.31 53.25 -21.31 51.25 C-22.47 50.92 -23.62 50.59 -24.81 50.25 C-28.31 49.25 -28.31 49.25 -30.31 47.25 C-31.49 46.92 -32.66 46.59 -33.88 46.25 C-35.58 45.75 -35.58 45.75 -37.31 45.25 C-37.64 44.59 -37.97 43.93 -38.31 43.25 C-40.27 42.71 -40.27 42.71 -42.56 42.38 C-46.72 41.53 -49.38 40.47 -52.31 37.25 C-52.31 35.93 -52.31 34.61 -52.31 33.25 C-51.65 33.25 -50.99 33.25 -50.31 33.25 C-50.17 31.95 -50.02 30.65 -49.88 29.31 C-49.44 25.38 -49.44 25.38 -48.31 24.25 C-46 24.15 -43.69 24.12 -41.38 24.12 C-40.11 24.12 -38.84 24.12 -37.54 24.12 C-34.31 24.25 -34.31 24.25 -32.31 25.25 C-32.31 25.91 -32.31 26.57 -32.31 27.25 C-30.33 27.58 -28.35 27.91 -26.31 28.25 C-26.28 27.43 -26.24 26.61 -26.2 25.77 C-26.13 24.69 -26.07 23.61 -26 22.5 C-25.94 21.43 -25.88 20.37 -25.82 19.27 C-25.27 15.99 -24.43 14.74 -22.31 12.25 C-22 11.58 -21.7 10.92 -21.38 10.23 C-20.04 7.75 -18.4 6.36 -16.25 4.56 C-15.54 3.96 -14.82 3.36 -14.09 2.74 C-13.5 2.25 -12.92 1.76 -12.31 1.25 C-9.84 -1.22 -3.32 0.02 0 0 Z M-9.62 20 C-12.24 25.04 -12.62 29.72 -11.31 35.25 C-8.53 38.88 -5.1 39.96 -0.7 40.68 C3.41 40.89 5.85 40.84 9.25 38.44 C10.84 36.22 10.84 36.22 11.69 33.25 C12.68 32.59 13.67 31.93 14.69 31.25 C14.34 28.78 14.34 28.78 13.69 26.25 C13.03 25.92 12.37 25.59 11.69 25.25 C10.67 23.59 9.67 21.93 8.69 20.25 C5.94 17.5 4.21 17.89 0.38 17.81 C-3.76 17.91 -5.93 18.05 -9.62 20 Z " fill="#F0F3F2" transform="translate(304.3125,470.75)"/>
<path d="M0 0 C0.69 -0.01 1.37 -0.02 2.08 -0.04 C5.82 -0.05 7.43 0.06 10.62 2.19 C11.28 1.53 11.95 0.87 12.62 0.19 C16.35 -0.32 20.12 -0.23 23.88 -0.25 C24.91 -0.28 25.95 -0.32 27.02 -0.35 C35.61 -0.41 35.61 -0.41 39.19 2.52 C39.99 3.4 40.8 4.28 41.62 5.19 C42.4 6.01 42.4 6.01 43.2 6.85 C44.35 8.29 45.48 9.74 46.62 11.19 C47.16 11.8 47.69 12.42 48.24 13.06 C49.92 15.64 50.01 17.16 50.02 20.21 C50.03 21.65 50.03 21.65 50.04 23.12 C50.02 24.11 50.01 25.1 50 26.12 C50.01 27.11 50.02 28.1 50.04 29.12 C50.01 34.31 49.97 37.97 46.62 42.19 C46.32 42.87 46.01 43.55 45.69 44.25 C42.84 49.45 38.89 51.1 33.62 53.19 C33.29 53.52 32.97 53.85 32.62 54.19 C31.14 54.27 29.64 54.29 28.15 54.29 C27.25 54.28 26.35 54.28 25.43 54.28 C24.01 54.26 24.01 54.26 22.56 54.25 C21.61 54.25 20.66 54.24 19.69 54.24 C17.33 54.22 14.98 54.21 12.62 54.19 C12.29 53.2 11.97 52.21 11.62 51.19 C10.97 51.19 10.3 51.19 9.62 51.19 C9.62 57.13 9.62 63.07 9.62 69.19 C1.69 72.59 1.69 72.59 -2.19 72.5 C-2.94 72.5 -3.69 72.49 -4.46 72.49 C-6.38 72.19 -6.38 72.19 -8.38 70.19 C-8.62 67.33 -8.62 67.33 -8.62 63.64 C-8.62 62.97 -8.62 62.3 -8.62 61.61 C-8.63 59.38 -8.62 57.16 -8.61 54.93 C-8.6 53.39 -8.6 51.85 -8.6 50.31 C-8.6 47.08 -8.59 43.84 -8.58 40.61 C-8.56 36.46 -8.56 32.31 -8.56 28.16 C-8.56 24.97 -8.56 21.79 -8.55 18.61 C-8.54 17.07 -8.54 15.54 -8.54 14.01 C-8.54 11.87 -8.53 9.74 -8.52 7.6 C-8.52 6.39 -8.51 5.17 -8.51 3.91 C-8.25 -1.44 -4.36 0 0 0 Z M11.38 15.81 C8.53 21.29 8.92 27.14 9.62 33.19 C12.01 36.76 14.68 38.64 18.62 40.19 C23.2 40.09 26.69 38.47 30.62 36.19 C32.12 33.2 31.93 30.15 32 26.88 C32.05 25.56 32.1 24.24 32.15 22.89 C31.91 19.09 31.91 19.09 29.48 16.25 C23.99 12.29 17.28 12.86 11.38 15.81 Z " fill="#F0F3F2" transform="translate(623.375,250.8125)"/>
<path d="M0 0 C3.12 0.25 3.12 0.25 4.8 1.5 C6.44 3.67 6.48 4.78 6.42 7.48 C6.4 8.68 6.4 8.68 6.39 9.91 C6.36 10.75 6.34 11.58 6.31 12.44 C6.29 13.7 6.29 13.7 6.27 15 C6.24 17.08 6.18 19.17 6.12 21.25 C5.13 21.58 4.14 21.91 3.12 22.25 C3.06 23.3 3 24.35 2.94 25.44 C1.98 29.94 0.43 31.19 -2.88 34.25 C-3.83 36.37 -3.83 36.37 -3.88 38.25 C-2.83 39.52 -2.83 39.52 -0.51 39.38 C0.46 39.38 1.43 39.38 2.44 39.38 C3.89 39.38 3.89 39.38 5.36 39.38 C8.05 39.35 8.05 39.35 10.28 38.66 C12.12 38.25 12.12 38.25 15.38 39.5 C18.46 42.59 18.69 43.48 19 47.69 C18.82 50.84 18.67 52.6 16.64 55.04 C11.84 58.32 6.84 59.1 1.12 59.25 C1.12 59.91 1.12 60.57 1.12 61.25 C-1.89 62.76 -5.03 62.58 -8.37 62.77 C-11.28 63.33 -12.56 64.45 -14.88 66.25 C-17.13 66.91 -17.13 66.91 -19.44 67.31 C-22.7 67.89 -24.01 68.34 -26.88 70.25 C-29.42 70.58 -31.94 70.69 -34.5 70.81 C-36.94 71.02 -36.94 71.02 -38.34 72.77 C-39.88 74.25 -39.88 74.25 -42.54 74.58 C-43.52 74.55 -44.49 74.53 -45.5 74.5 C-46.48 74.48 -47.46 74.47 -48.48 74.45 C-50.88 74.25 -50.88 74.25 -51.88 73.25 C-52.23 70.92 -52.56 68.59 -52.88 66.25 C-53.12 65.38 -53.37 64.52 -53.62 63.62 C-53.88 61.25 -53.88 61.25 -53.12 58.5 C-49.46 54.84 -44.86 55.34 -39.88 55.25 C-39.88 54.59 -39.88 53.93 -39.88 53.25 C-37.03 51.83 -34.21 51.92 -31.07 51.73 C-28.45 51.16 -27.67 50.16 -25.88 48.25 C-23.19 48.06 -23.19 48.06 -20.88 48.25 C-20.88 47.59 -20.88 46.93 -20.88 46.25 C-22.19 45.92 -23.51 45.59 -24.88 45.25 C-24.88 44.59 -24.88 43.93 -24.88 43.25 C-25.87 43 -26.86 42.75 -27.88 42.5 C-33.77 40.8 -40.19 38.35 -43.88 33.25 C-44.7 30.61 -45.26 27.95 -45.88 25.25 C-46.54 24.59 -47.19 23.93 -47.88 23.25 C-48 20.12 -48 20.12 -47.88 17.25 C-45.62 16.56 -45.62 16.56 -42.88 16.25 C-40.94 17.56 -40.94 17.56 -38.88 19.25 C-37.95 19.56 -37.02 19.87 -36.06 20.19 C-32.29 21.45 -29.28 23.21 -25.88 25.25 C-25.88 25.91 -25.88 26.57 -25.88 27.25 C-23.63 27.84 -23.63 27.84 -20.88 27.25 C-19.12 25.58 -17.68 23.8 -16.21 21.88 C-14.88 20.25 -14.88 20.25 -12.88 19.25 C-12.59 18.34 -12.3 17.43 -12 16.5 C-10.8 13.03 -9.38 10.91 -6.88 8.25 C-6.22 8.25 -5.56 8.25 -4.88 8.25 C-4.73 7.12 -4.59 5.98 -4.44 4.81 C-3.73 0.32 -3.73 0.32 0 0 Z " fill="#F0F3F2" transform="translate(306.875,714.75)"/>
<path d="M0 0 C3.06 1.38 3.06 1.38 6 3 C7.13 3.23 8.27 3.45 9.44 3.69 C14.3 5.48 17.27 8.61 20 13 C20 17 20 17 18.47 18.7 C17.82 19.21 17.17 19.72 16.5 20.25 C15.53 21.03 15.53 21.03 14.53 21.83 C14.03 22.21 13.52 22.6 13 23 C13.33 23.33 13.66 23.66 14 24 C15.46 23.94 16.92 23.85 18.38 23.75 C22.7 23.73 22.7 23.73 25.12 25.94 C26.56 30.96 26.16 35.3 24.09 40.11 C19.63 47.89 13.27 52.86 5 56 C4.34 56.66 3.68 57.32 3 58 C-12.9 59.61 -12.9 59.61 -18.56 55.62 C-21 53 -21 53 -21 51 C-21.58 50.75 -22.15 50.5 -22.75 50.25 C-25.45 48.75 -27.09 47.44 -29 45 C-29.75 41.25 -29.75 41.25 -30 38 C-30.99 37.67 -31.98 37.34 -33 37 C-33.08 34.56 -33.14 32.13 -33.19 29.69 C-33.21 29 -33.24 28.31 -33.26 27.6 C-33.34 22.42 -33.34 22.42 -31.54 20.2 C-31.03 19.8 -30.52 19.41 -30 19 C-29.71 18.05 -29.42 17.1 -29.12 16.12 C-27.78 12.38 -26.01 10.56 -23 8 C-22.34 8 -21.68 8 -21 8 C-20.83 7.38 -20.67 6.76 -20.5 6.12 C-18.43 3.19 -16.4 3.12 -12.97 2.49 C-1.97 -0.25 -1.97 -0.25 0 0 Z M-14 18 C-15.47 21.91 -15.47 21.91 -16 26 C-16.66 26 -17.32 26 -18 26 C-17.34 27.65 -16.68 29.3 -16 31 C-15.01 31 -14.02 31 -13 31 C-11.78 29.58 -10.56 28.15 -9.41 26.67 C-7.22 24.07 -4.66 22.1 -2 20 C-2.33 19.01 -2.66 18.02 -3 17 C-6.79 17 -10.27 17.43 -14 18 Z M7.12 25.56 C4.72 27.19 3.15 29.14 1.37 31.41 C-0.07 33.08 -1.59 34.38 -3.31 35.75 C-4.64 36.86 -4.64 36.86 -6 38 C-6 38.66 -6 39.32 -6 40 C-0.11 40.52 2.87 40.02 7.55 36.39 C10.85 33.23 11.42 30.37 12 26 C9.2 24.75 9.2 24.75 7.12 25.56 Z " fill="#F0F3F2" transform="translate(404,339)"/>
<path d="M0 0 C0.82 -0.02 1.63 -0.04 2.47 -0.06 C7.01 -0.09 9.72 -0.06 13.12 3.25 C13.93 3.52 14.73 3.79 15.56 4.06 C19.08 5.69 20.74 8.24 23.12 11.25 C24.12 11.91 25.11 12.57 26.12 13.25 C26.83 15.57 27.5 17.91 28.12 20.25 C28.78 20.91 29.45 21.57 30.12 22.25 C30.87 27.08 30.47 31.29 28.81 35.88 C25.22 39.05 22.74 38.85 18.07 38.75 C15.12 38.25 15.12 38.25 11.83 36.76 C7.47 34.98 3.84 34.7 -0.81 34.56 C-1.59 34.53 -2.37 34.49 -3.17 34.46 C-5.07 34.38 -6.97 34.31 -8.88 34.25 C-6.78 37.44 -5.72 39.05 -1.92 39.96 C-0.83 39.99 0.25 40.03 1.38 40.06 C2.52 40.11 3.67 40.17 4.85 40.22 C7.5 40.24 10.11 40.18 12.75 40.06 C16.12 40.25 16.12 40.25 18 41.94 C18.37 42.7 18.74 43.46 19.12 44.25 C19.74 45.49 19.74 45.49 20.38 46.75 C21.12 49.25 21.12 49.25 21.19 51.38 C19.42 54.49 16.36 55.04 13.12 56.25 C12.79 56.58 12.47 56.91 12.12 57.25 C9.84 57.38 7.54 57.43 5.25 57.44 C3.99 57.45 2.74 57.47 1.45 57.48 C-1.88 57.25 -1.88 57.25 -4.88 55.25 C-6.45 54.82 -6.45 54.82 -8.06 54.38 C-14.68 52.42 -20.06 50.27 -23.88 44.25 C-24.57 42.59 -25.24 40.93 -25.88 39.25 C-26.53 38.59 -27.2 37.93 -27.88 37.25 C-28.12 35.4 -28.12 35.4 -28.11 33.19 C-28.1 32.39 -28.1 31.59 -28.1 30.77 C-28.09 29.94 -28.08 29.11 -28.06 28.25 C-28.06 27.42 -28.06 26.58 -28.06 25.73 C-28.02 19.53 -28.02 19.53 -26.88 17.25 C-26.22 17.25 -25.55 17.25 -24.88 17.25 C-24.67 16.53 -24.46 15.81 -24.25 15.06 C-22.47 11.42 -20.06 9.73 -16.88 7.25 C-16.13 6.49 -15.39 5.72 -14.62 4.94 C-12.88 3.25 -12.88 3.25 -10.88 3.25 C-10.88 2.59 -10.88 1.93 -10.88 1.25 C-7.5 -0.44 -3.71 0.02 0 0 Z M-7.88 18.25 C-7.88 18.91 -7.88 19.57 -7.88 20.25 C1.39 23.74 1.39 23.74 11.12 24.25 C11.46 22.6 11.78 20.95 12.12 19.25 C3.92 14.87 0.27 12.98 -7.88 18.25 Z " fill="#F0F3F2" transform="translate(702.875,254.75)"/>
<path d="M0 0 C1.37 0.1 2.75 0.21 4.12 0.32 C4.82 0.37 5.52 0.42 6.24 0.47 C11.41 0.87 11.41 0.87 12.56 2.01 C13.18 8.37 12.4 12.32 9.56 18.01 C9 22 8.75 25.99 8.56 30.01 C7.57 30.34 6.58 30.67 5.56 31.01 C5.54 31.6 5.53 32.18 5.51 32.78 C5.44 35.44 5.34 38.1 5.25 40.76 C5.22 41.68 5.2 42.6 5.18 43.55 C5.14 44.44 5.11 45.33 5.07 46.25 C5.04 47.06 5.02 47.88 4.99 48.72 C4.47 51.48 3.29 52.84 1.56 55.01 C1.21 57.69 1.21 57.69 1.25 60.51 C0.91 65.65 0.91 65.65 -2.19 68.82 C-5.44 70.01 -5.44 70.01 -7.75 69.32 C-8.64 68.89 -9.53 68.46 -10.44 68.01 C-12.68 67.73 -14.91 67.58 -17.16 67.45 C-19.44 67.01 -19.44 67.01 -21.72 65.51 C-25.26 63.56 -28.5 63.56 -32.44 63.51 C-37.59 63.45 -41.11 62.99 -45.44 60.01 C-47.77 59.31 -50.1 58.64 -52.44 58.01 C-53.44 57.01 -53.44 57.01 -53.82 54.32 C-53.42 50.81 -52.55 48.77 -50.13 46.15 C-47.43 44.33 -45 44.42 -41.82 44.51 C-39.44 45.01 -39.44 45.01 -36.74 46.54 C-32.39 48.48 -28.77 48.35 -24.07 48.2 C-23.23 48.19 -22.4 48.17 -21.55 48.16 C-19.51 48.12 -17.48 48.07 -15.44 48.01 C-14.18 45.49 -14.34 43.7 -14.38 40.89 C-14.39 39.98 -14.4 39.07 -14.41 38.13 C-14.42 37.43 -14.43 36.73 -14.44 36.01 C-15.35 35.97 -16.25 35.94 -17.18 35.9 C-18.36 35.83 -19.54 35.77 -20.75 35.7 C-22.51 35.61 -22.51 35.61 -24.3 35.52 C-27.75 34.96 -28.18 34.42 -30.44 32.01 C-32.91 31.47 -32.91 31.47 -35.57 31.39 C-40.36 31.1 -40.36 31.1 -41.44 30.01 C-41.54 28.01 -41.57 26.01 -41.57 24.01 C-41.57 22.37 -41.57 22.37 -41.57 20.7 C-41.44 18.01 -41.44 18.01 -40.44 17.01 C-37.97 16.86 -35.54 16.78 -33.07 16.76 C-32.04 16.73 -32.04 16.73 -30.99 16.7 C-25.81 16.66 -25.81 16.66 -23.85 18.52 C-23.39 19.01 -22.92 19.5 -22.44 20.01 C-19.47 20.37 -19.47 20.37 -16.25 20.2 C-14.62 20.16 -14.62 20.16 -12.96 20.12 C-12.13 20.08 -11.3 20.05 -10.44 20.01 C-10.26 19.07 -10.26 19.07 -10.07 18.11 C-9.91 17.3 -9.74 16.48 -9.57 15.64 C-9.4 14.82 -9.24 14.01 -9.07 13.18 C-8.44 11.01 -8.44 11.01 -6.44 9.01 C-6.28 7.86 -6.11 6.7 -5.94 5.51 C-5.27 0.83 -4.79 0.02 0 0 Z " fill="#F0F3F2" transform="translate(580.44140625,973.98828125)"/>
<path d="M0 0 C1.53 -0.03 1.53 -0.03 3.09 -0.06 C4.07 -0.07 5.05 -0.07 6.05 -0.08 C6.95 -0.09 7.85 -0.1 8.78 -0.11 C11.59 0.32 12.33 1.13 14.12 3.25 C14.76 3.56 15.4 3.87 16.06 4.19 C20.89 6.68 22.89 10.46 25.12 15.25 C25.62 15.75 25.62 15.75 26.12 16.25 C26.4 19.72 26.36 23.21 26.38 26.69 C26.4 27.67 26.42 28.65 26.44 29.66 C26.45 31.06 26.45 31.06 26.45 32.5 C26.47 33.79 26.47 33.79 26.48 35.11 C26.36 35.82 26.25 36.52 26.12 37.25 C25.13 37.91 24.14 38.57 23.12 39.25 C22.88 40.16 22.63 41.07 22.38 42 C20.89 45.87 19.07 47.35 15.88 49.86 C14.09 51.22 14.09 51.22 12.56 52.89 C10.6 54.74 8.73 54.73 6.12 55.25 C5.71 55.75 5.3 56.25 4.88 56.76 C2.24 59 0.02 58.65 -3.38 58.62 C-5.09 58.64 -5.09 58.64 -6.84 58.65 C-10.19 58.21 -10.77 57.71 -12.88 55.25 C-13.99 54.98 -15.1 54.71 -16.25 54.44 C-20.94 52.9 -21.96 51.14 -24.88 47.25 C-25.87 46.59 -26.86 45.93 -27.88 45.25 C-28.58 42.93 -29.25 40.59 -29.88 38.25 C-30.53 37.59 -31.2 36.93 -31.88 36.25 C-32.63 30.19 -32.52 25.29 -28.88 20.25 C-28.57 19.1 -28.26 17.94 -27.94 16.75 C-26.8 13.01 -25.5 11.1 -22.88 8.25 C-22.28 7.55 -21.68 6.85 -21.06 6.12 C-18.2 3.67 -15.38 2.64 -11.88 1.25 C-9.45 -1.17 -3.25 0.02 0 0 Z M-12.27 20.51 C-14.27 23.93 -14.7 25.99 -14.51 29.89 C-13.22 34.68 -10.05 37.75 -5.88 40.25 C-2.43 40.87 0.67 40.76 4.12 40.25 C4.46 39.26 4.78 38.27 5.12 37.25 C6.12 36.92 7.11 36.59 8.12 36.25 C8.46 35.26 8.78 34.27 9.12 33.25 C10.69 31.56 10.69 31.56 12.12 30.25 C11.36 28.81 10.59 27.37 9.81 25.94 C9.38 25.14 8.95 24.34 8.51 23.51 C6.71 20.51 6.71 20.51 4.12 18.25 C0.84 17.7 0.84 17.7 -2.81 17.75 C-4.04 17.72 -5.26 17.69 -6.53 17.66 C-10 17.96 -10 17.96 -12.27 20.51 Z " fill="#F0F3F2" transform="translate(902.875,866.75)"/>
<path d="M0 0 C0.82 -0.02 1.63 -0.04 2.47 -0.06 C7.01 -0.09 9.72 -0.06 13.12 3.25 C13.93 3.52 14.73 3.79 15.56 4.06 C19.08 5.69 20.74 8.24 23.12 11.25 C24.12 11.91 25.11 12.57 26.12 13.25 C26.79 15.05 26.79 15.05 27.19 17.12 C27.69 19.48 28.11 21.23 29.25 23.38 C30.53 26.13 30.44 28.25 30.12 31.25 C29.16 32.61 28.16 33.94 27.12 35.25 C26.45 37.58 25.79 39.92 25.12 42.25 C24.13 42.75 24.13 42.75 23.12 43.25 C22.9 44.16 22.67 45.07 22.44 46 C20.66 50.41 18.34 52.18 14.12 54.25 C5.53 57.11 -2.49 56.48 -10.88 53.25 C-10.88 49.25 -10.88 49.25 -8.88 46.25 C-8.53 42.73 -8.43 39.23 -8.32 35.7 C-7.85 32.05 -6.81 30.3 -4.88 27.25 C-4.52 25.04 -4.52 25.04 -4.69 22.94 C-4.75 21.72 -4.81 20.5 -4.88 19.25 C-8.14 19.96 -8.14 19.96 -9.44 23.12 C-9.91 24.16 -10.39 25.19 -10.88 26.25 C-11.53 27.24 -12.2 28.23 -12.88 29.25 C-13.21 32.29 -13.21 32.29 -12.88 35.25 C-12.22 35.91 -11.55 36.57 -10.88 37.25 C-11.09 39.97 -11.79 42.06 -12.88 44.56 C-15.7 46.95 -18.02 46.73 -21.62 46.78 C-24.95 46 -25.97 45.11 -27.88 42.25 C-28.39 38.86 -28.3 35.54 -28.19 32.12 C-28.18 31.21 -28.17 30.29 -28.16 29.34 C-28.04 22.59 -28.04 22.59 -26.88 20.25 C-26.22 20.25 -25.55 20.25 -24.88 20.25 C-24.78 18.67 -24.78 18.67 -24.69 17.06 C-23.71 12.48 -22.41 11.23 -18.88 8.25 C-18.35 7.78 -17.82 7.31 -17.28 6.83 C-13.19 3.25 -13.19 3.25 -10.88 3.25 C-10.88 2.59 -10.88 1.93 -10.88 1.25 C-7.5 -0.44 -3.71 0.02 0 0 Z M7.12 22.25 C4.96 24.41 5.72 29.82 5.61 32.88 C5.52 34.67 5.33 36.46 5.12 38.25 C4.47 38.58 3.8 38.91 3.12 39.25 C4.45 39.58 5.76 39.91 7.12 40.25 C12.2 35.35 12.2 35.35 14.75 29 C14.06 25.95 13.42 24.38 11.12 22.25 C9.8 22.25 8.49 22.25 7.12 22.25 Z " fill="#F0F3F2" transform="translate(994.875,690.75)"/>
<path d="M0 0 C1.08 0.01 1.08 0.01 2.18 0.03 C7.8 0.3 10.25 1.96 14.25 5.88 C15.3 6.8 15.3 6.8 16.38 7.75 C23.33 15.63 23.31 23.33 22.96 33.43 C22.37 40.03 20.29 44.03 15.77 48.96 C13.33 50.81 12.02 51.68 9 51.94 C3.8 50.46 1.7 48.34 -1.02 43.71 C-1.88 42.16 -2.73 40.6 -3.56 39.03 C-5.75 35.08 -8 32.37 -11.75 29.88 C-12.25 29.03 -12.74 28.18 -13.25 27.31 C-14.57 24.58 -14.57 24.58 -17.75 23.88 C-17.36 29.6 -16.88 32.62 -12.75 36.88 C-12.28 37.43 -11.8 37.99 -11.31 38.56 C-9.73 40.04 -9.73 40.04 -7.25 40.81 C-4.24 42.09 -3.24 42.97 -1.75 45.88 C-1.22 50.05 -1.3 52.13 -3.5 55.75 C-6.81 58.88 -6.81 58.88 -9.75 58.88 C-10.77 57.9 -11.77 56.89 -12.75 55.88 C-13.7 55.57 -14.65 55.26 -15.62 54.94 C-21.04 53.1 -24.56 49.55 -27.75 44.88 C-28.1 43.21 -28.43 41.55 -28.75 39.88 C-29.74 39.22 -30.73 38.56 -31.75 37.88 C-33.08 30.16 -33.48 21.52 -31.75 13.88 C-29.31 10.81 -29.31 10.81 -26.75 8.88 C-26.09 8.88 -25.43 8.88 -24.75 8.88 C-24.48 8.24 -24.21 7.6 -23.94 6.94 C-22.75 4.88 -22.75 4.88 -19.75 3.88 C-19.42 2.88 -19.09 1.89 -18.75 0.88 C-12.46 -0.02 -6.34 -0.23 0 0 Z M-4.75 14.88 C-4.75 15.87 -4.75 16.86 -4.75 17.88 C-4.09 17.88 -3.43 17.88 -2.75 17.88 C-2.5 18.76 -2.25 19.65 -2 20.56 C-0.38 24.84 1.5 27.85 5.5 30.19 C6.08 30.41 6.65 30.64 7.25 30.88 C8.87 27.63 8.81 24.38 8.25 20.88 C6.93 17.95 5.84 17.04 3.25 14.88 C0.39 14.38 -1.82 14.58 -4.75 14.88 Z " fill="#F0F3F2" transform="translate(934.75,394.125)"/>
<path d="M0 0 C1.46 1.73 2.67 3.5 3.88 5.41 C5.53 7.09 7.19 8.76 8.88 10.41 C11.93 13.45 11.18 16.49 11.21 20.66 C11.2 21.73 11.2 22.8 11.2 23.91 C11.21 24.98 11.23 26.05 11.24 27.15 C11.24 28.17 11.25 29.2 11.25 30.25 C11.25 31.19 11.25 32.13 11.26 33.1 C11.07 34.24 11.07 34.24 10.88 35.41 C9.89 36.07 8.9 36.73 7.88 37.41 C7.39 38.92 7.39 38.92 6.88 40.47 C6.55 41.44 6.22 42.41 5.88 43.41 C4.89 43.74 3.9 44.07 2.88 44.41 C2.59 45.07 2.31 45.73 2.01 46.41 C0.88 48.41 0.88 48.41 -1.74 49.16 C-2.53 49.24 -3.31 49.32 -4.12 49.41 C-4.12 50.07 -4.12 50.73 -4.12 51.41 C-6.49 52.59 -7.97 52.54 -10.62 52.54 C-11.95 52.54 -11.95 52.54 -13.3 52.54 C-14.23 52.54 -15.16 52.54 -16.12 52.53 C-17.05 52.54 -17.97 52.54 -18.93 52.54 C-19.82 52.54 -20.7 52.54 -21.62 52.54 C-22.43 52.54 -23.25 52.54 -24.09 52.54 C-26.12 52.41 -26.12 52.41 -28.12 51.41 C-28.12 50.75 -28.12 50.09 -28.12 49.41 C-30.1 48.75 -32.08 48.09 -34.12 47.41 C-33.45 43.02 -31.93 39.43 -30.12 35.41 C-29.46 35.41 -28.8 35.41 -28.12 35.41 C-27.87 34.75 -27.62 34.09 -27.37 33.41 C-26.34 30.95 -25.27 28.55 -24.12 26.16 C-23.79 25.47 -23.46 24.78 -23.12 24.08 C-22.12 22.41 -22.12 22.41 -20.12 21.41 C-19.42 19.42 -18.76 17.41 -18.12 15.41 C-17.46 14.42 -16.8 13.43 -16.12 12.41 C-21.03 13.9 -25.03 16.29 -28.12 20.41 C-29.45 24.03 -30.42 27.6 -31.29 31.36 C-32.12 34.41 -32.12 34.41 -34.12 36.41 C-36.65 36.67 -36.65 36.67 -39.62 36.66 C-40.6 36.66 -41.58 36.67 -42.59 36.67 C-45.12 36.41 -45.12 36.41 -47.12 34.41 C-47.42 32.13 -47.42 32.13 -47.43 29.47 C-47.45 28.59 -47.46 27.72 -47.48 26.82 C-47.05 23.93 -46.18 23.36 -44.12 21.41 C-43.62 19.47 -43.62 19.47 -43.43 17.34 C-42.1 10.57 -37.66 5.3 -32.39 0.99 C-30.74 -0.03 -30.74 -0.03 -27.12 -1.59 C-26.41 -1.92 -25.71 -2.25 -24.98 -2.59 C-17.27 -5.65 -6.8 -5.12 0 0 Z M-8.12 20.41 C-8.39 21.52 -8.65 22.63 -8.93 23.78 C-10.12 27.41 -10.12 27.41 -13.12 29.41 C-14.29 32.34 -14.29 32.34 -15.12 35.41 C-15.45 36.4 -15.78 37.39 -16.12 38.41 C-12.35 38.98 -10.39 38.15 -7.37 36.03 C-5.33 34.52 -4.26 33.69 -3.12 31.41 C-3.05 29.7 -3.03 27.99 -3.05 26.28 C-3.06 25.37 -3.07 24.46 -3.08 23.52 C-3.09 22.82 -3.11 22.13 -3.12 21.41 C-4.77 21.08 -6.42 20.75 -8.12 20.41 Z " fill="#F0F3F2" transform="translate(970.1171875,800.59375)"/>
<path d="M0 0 C1.32 -0.04 2.63 -0.08 3.99 -0.12 C8.53 0.56 9.94 1.83 12.69 5.44 C13.19 9.06 13.19 9.06 12.69 12.44 C12.19 12.87 11.7 13.3 11.19 13.75 C8.94 16.27 9.24 18.49 9.12 21.81 C8.96 26.19 8.5 29.45 6.69 33.44 C6.01 35.43 5.34 37.43 4.69 39.44 C8.72 37.31 11.24 35.31 13.69 31.44 C14.3 28.34 14.38 25.28 14.44 22.12 C14.47 21.29 14.5 20.45 14.53 19.59 C14.6 17.54 14.64 15.49 14.69 13.44 C20.35 10.41 20.35 10.41 23.38 10.62 C25.69 11.44 25.69 11.44 28.69 13.44 C29.39 17.25 29.2 21.13 29.19 25 C29.22 26.06 29.24 27.12 29.27 28.21 C29.29 35.43 28.12 40.65 23.69 46.44 C21.78 48.3 19.82 49.82 17.69 51.44 C17.03 52.43 16.37 53.42 15.69 54.44 C13.37 55.14 11.03 55.81 8.69 56.44 C8.03 57.1 7.37 57.76 6.69 58.44 C4.38 58.67 4.38 58.67 1.69 58.62 C0.36 58.62 0.36 58.62 -1 58.61 C-3.31 58.44 -3.31 58.44 -5.31 57.44 C-5.31 56.78 -5.31 56.12 -5.31 55.44 C-6.47 55.42 -7.62 55.4 -8.81 55.38 C-14.24 54.72 -17.89 51.56 -21.31 47.44 C-21.65 46.11 -21.98 44.77 -22.31 43.44 C-23.3 42.78 -24.29 42.12 -25.31 41.44 C-25.7 39.04 -25.7 39.04 -25.71 36.06 C-25.71 35 -25.72 33.93 -25.72 32.83 C-25.71 31.15 -25.71 31.15 -25.69 29.44 C-25.7 28.32 -25.71 27.2 -25.72 26.05 C-25.72 24.98 -25.71 23.91 -25.71 22.81 C-25.71 21.83 -25.7 20.85 -25.7 19.84 C-25.57 19.04 -25.44 18.25 -25.31 17.44 C-24.32 16.78 -23.33 16.12 -22.31 15.44 C-21.98 14.43 -21.65 13.42 -21.31 12.38 C-20.98 11.41 -20.65 10.44 -20.31 9.44 C-19.32 9.11 -18.33 8.78 -17.31 8.44 C-17.04 7.8 -16.78 7.16 -16.5 6.5 C-14.77 3.49 -12.54 3.38 -9.31 2.44 C-6.49 -0.38 -3.77 0.03 0 0 Z M-7.31 18.44 C-7.64 19.43 -7.97 20.42 -8.31 21.44 C-8.97 21.44 -9.63 21.44 -10.31 21.44 C-11.69 24.2 -11.41 26.48 -11.38 29.56 C-11.37 30.66 -11.36 31.75 -11.35 32.88 C-11.34 33.73 -11.32 34.57 -11.31 35.44 C-9.66 35.82 -7.99 36.15 -6.31 36.44 C-4.29 34.41 -4.87 30.43 -4.69 27.69 C-4.57 26.95 -4.44 26.2 -4.31 25.44 C-3.65 25.11 -2.99 24.78 -2.31 24.44 C-1.57 21.96 -1.57 21.96 -1.31 19.44 C-2.38 18.14 -2.38 18.14 -4.88 18.38 C-5.68 18.4 -6.48 18.42 -7.31 18.44 Z " fill="#F0F3F2" transform="translate(284.3125,530.5625)"/>
<path d="M0 0 C2.69 0.02 3.9 0.16 6 1.89 C7.52 3.71 8.91 5.59 10.31 7.5 C11.96 9.19 13.62 10.86 15.31 12.5 C18 15.19 18.3 17.88 19.31 21.5 C19.97 22.49 20.63 23.48 21.31 24.5 C21.54 27.57 21.54 27.57 21.5 31.06 C21.49 32.22 21.49 33.38 21.48 34.57 C21.31 37.5 21.31 37.5 20.31 39.5 C19.65 39.5 18.99 39.5 18.31 39.5 C18.04 40.63 17.78 41.77 17.5 42.94 C16.91 44.7 16.91 44.7 16.31 46.5 C15.32 46.83 14.33 47.16 13.31 47.5 C12.86 47.97 12.4 48.45 11.94 48.94 C9.93 50.87 7.9 51.51 5.31 52.5 C4.65 53.16 3.99 53.82 3.31 54.5 C2.49 54.64 1.66 54.79 0.81 54.94 C-2.04 55.28 -2.04 55.28 -3.69 58.5 C-5.69 58.83 -7.69 59.17 -9.69 59.5 C-10.35 60.49 -11.01 61.48 -11.69 62.5 C-16.44 63.12 -18.56 63.22 -22.62 60.62 C-25.14 56.81 -25.09 54.18 -25.33 49.72 C-25.46 47.27 -25.46 47.27 -27.88 45.88 C-28.8 45.42 -29.73 44.97 -30.69 44.5 C-34.23 41.79 -36.32 38.83 -37.03 34.35 C-37.25 31.83 -37.34 29.34 -37.38 26.81 C-37.39 25.98 -37.41 25.15 -37.43 24.29 C-37.35 19.97 -37.11 18.04 -34.39 14.54 C-30.35 11.5 -26.35 9.37 -21.19 9.62 C-19.95 10.06 -19.95 10.06 -18.69 10.5 C-17.73 10.8 -17.73 10.8 -16.75 11.11 C-8.86 13.74 -5.83 18.31 -2.12 25.56 C-1.65 26.53 -1.18 27.5 -0.69 28.5 C-0.3 29.28 0.1 30.07 0.5 30.88 C0.77 31.41 1.04 31.95 1.31 32.5 C1.97 32.5 2.63 32.5 3.31 32.5 C3.25 30.42 3.16 28.33 3.06 26.25 C3.02 25.09 2.97 23.93 2.92 22.73 C2.21 18.97 1.26 17.84 -1.69 15.5 C-3.33 14.46 -4.99 13.44 -6.69 12.5 C-6.38 10.69 -6.07 8.87 -5.75 7.06 C-5.49 5.55 -5.49 5.55 -5.22 4 C-4.39 0.1 -4.22 0.57 0 0 Z M-21.69 27.5 C-22.85 31.98 -23.06 33.83 -20.75 37.94 C-17.62 40.56 -17.16 40.87 -13.38 40.88 C-12.16 40.75 -10.94 40.63 -9.69 40.5 C-9.36 39.84 -9.03 39.18 -8.69 38.5 C-9.97 36.11 -11.28 33.81 -12.69 31.5 C-13.02 30.84 -13.35 30.18 -13.69 29.5 C-14.35 29.5 -15.01 29.5 -15.69 29.5 C-15.69 28.84 -15.69 28.18 -15.69 27.5 C-18.69 26.17 -18.69 26.17 -21.69 27.5 Z " fill="#F0F3F2" transform="translate(967.6875,438.5)"/>
<path d="M0 0 C0.72 -0.02 1.44 -0.04 2.18 -0.06 C6.52 -0.09 8.96 0.24 12.12 3.25 C12.76 3.52 13.4 3.79 14.06 4.06 C17.13 5.83 18.91 8.52 21.12 11.25 C22.12 11.91 23.11 12.57 24.12 13.25 C24.99 16.77 25.26 19.49 24.62 23.06 C22.39 26.33 19.91 26.52 16.12 27.25 C15.13 27.25 14.14 27.25 13.12 27.25 C13.12 27.91 13.12 28.57 13.12 29.25 C12.5 29.44 11.87 29.64 11.23 29.84 C10.41 30.1 9.59 30.36 8.75 30.62 C7.94 30.88 7.13 31.14 6.29 31.4 C3.96 32.15 3.96 32.15 2.12 34.25 C0.39 34.68 0.39 34.68 -1.38 35.12 C-4.95 35.84 -4.95 35.84 -6.09 38.32 C-6.35 38.96 -6.61 39.59 -6.88 40.25 C-4.77 40.16 -2.67 40.05 -0.56 39.94 C0.61 39.88 1.78 39.82 2.99 39.76 C6.31 39.22 7.07 38.76 9.12 36.25 C9.81 36.11 10.49 35.96 11.19 35.81 C13.33 35.44 13.33 35.44 14.25 33.21 C14.68 32.24 14.68 32.24 15.12 31.25 C16.92 31.36 18.71 31.49 20.5 31.62 C22 31.73 22 31.73 23.52 31.84 C26.12 32.25 26.12 32.25 28.12 34.25 C28.69 37.5 28.69 37.5 28.12 41.25 C26.51 43.07 24.82 44.45 22.85 45.89 C20.86 47.32 20.86 47.32 19.12 50.25 C17.15 51.3 15.15 52.3 13.12 53.25 C12.8 53.58 12.47 53.91 12.12 54.25 C7.67 54.53 3.21 54.48 -1.25 54.5 C-2.51 54.52 -3.77 54.54 -5.06 54.56 C-6.27 54.57 -7.47 54.57 -8.71 54.58 C-9.82 54.59 -10.93 54.6 -12.07 54.61 C-15.22 54.21 -15.94 53.65 -17.88 51.25 C-18.51 50.94 -19.15 50.63 -19.81 50.31 C-22.47 48.95 -23.99 47.58 -25.88 45.25 C-26.61 42.94 -27.28 40.6 -27.88 38.25 C-28.54 37.26 -29.19 36.27 -29.88 35.25 C-30.18 32.29 -30.18 32.29 -30.19 28.88 C-30.2 27.75 -30.22 26.63 -30.24 25.48 C-29.84 21.95 -28.86 20.15 -26.88 17.25 C-26.47 16.01 -26.47 16.01 -26.06 14.75 C-24.42 11.29 -21.85 9.61 -18.88 7.25 C-18.21 6.26 -17.56 5.27 -16.88 4.25 C-13.25 3.56 -13.25 3.56 -9.88 3.25 C-9.88 2.59 -9.88 1.93 -9.88 1.25 C-6.75 -0.31 -3.43 0.02 0 0 Z M-11.88 19.25 C-12.46 22.96 -12.46 22.96 -11.88 26.25 C-10.88 26.75 -10.88 26.75 -9.88 27.25 C-9.55 26.59 -9.21 25.93 -8.88 25.25 C-6.54 24.57 -4.21 23.91 -1.88 23.25 C-1.21 22.59 -0.56 21.93 0.12 21.25 C2.11 20.54 4.11 19.86 6.12 19.25 C4.82 16.13 4.82 16.13 2.12 14.25 C-3.74 13.56 -8.05 14.66 -11.88 19.25 Z " fill="#F0F3F2" transform="translate(496.875,278.75)"/>
<path d="M0 0 C1.6 -0.03 1.6 -0.03 3.23 -0.06 C4.26 -0.07 5.28 -0.07 6.34 -0.08 C7.28 -0.09 8.22 -0.1 9.19 -0.11 C12.08 0.32 12.76 1.09 14.62 3.25 C15.49 3.58 16.36 3.91 17.25 4.25 C18.03 4.58 18.82 4.91 19.62 5.25 C20.12 6.74 20.12 6.74 20.62 8.25 C22.64 8.98 22.64 8.98 24.62 9.25 C24.78 10.67 24.78 10.67 24.94 12.12 C25.31 15.54 25.31 15.54 28.62 17.25 C29.01 19.28 29.01 19.28 29.02 21.75 C29.03 23.08 29.03 23.08 29.04 24.44 C29.02 25.37 29.01 26.29 29 27.25 C29.01 28.18 29.02 29.11 29.04 30.06 C29.03 30.95 29.03 31.84 29.02 32.75 C29.02 33.56 29.02 34.38 29.01 35.22 C28.89 35.89 28.76 36.56 28.62 37.25 C27.63 37.91 26.64 38.57 25.62 39.25 C25.34 40.36 25.05 41.48 24.75 42.62 C23.45 46.82 22.34 48.01 18.62 50.25 C16.96 50.6 15.3 50.93 13.62 51.25 C12.97 52.24 12.3 53.23 11.62 54.25 C7.25 54.95 2.8 54.76 -1.62 54.75 C-3.47 54.79 -3.47 54.79 -5.35 54.84 C-15.46 54.86 -15.46 54.86 -19.1 51.84 C-19.85 50.98 -20.6 50.13 -21.38 49.25 C-22.1 48.63 -22.82 48.01 -23.56 47.38 C-25.98 44.54 -27 41.71 -28.38 38.25 C-28.71 37.92 -29.03 37.59 -29.38 37.25 C-29.65 33.95 -29.61 30.63 -29.62 27.31 C-29.65 26.38 -29.67 25.45 -29.69 24.49 C-29.7 23.15 -29.7 23.15 -29.7 21.79 C-29.71 20.96 -29.72 20.14 -29.73 19.3 C-29.61 18.62 -29.5 17.95 -29.38 17.25 C-28.38 16.59 -27.39 15.93 -26.38 15.25 C-26.13 14.32 -25.88 13.39 -25.62 12.44 C-23.92 8.08 -21.28 6.61 -17.38 4.25 C-16.43 3.67 -15.48 3.1 -14.5 2.5 C-13.45 1.88 -13.45 1.88 -12.38 1.25 C-9.9 -1.23 -3.33 0.02 0 0 Z M-6.56 16.62 C-7.26 17.07 -7.95 17.51 -8.67 17.96 C-10.51 19.16 -10.51 19.16 -11.38 21.25 C-12.19 30.22 -12.19 30.22 -9.62 38.62 C-4.57 41.15 0.09 41.14 5.62 40.25 C9.14 38.81 9.14 38.81 10.62 35.25 C11.18 29.82 11.36 24.47 9.62 19.25 C7.91 17.8 7.91 17.8 5.81 16.56 C5.13 16.13 4.44 15.69 3.73 15.24 C-0.38 13.31 -3.01 14.32 -6.56 16.62 Z " fill="#F0F3F2" transform="translate(580.375,254.75)"/>
<path d="M0 0 C1.06 -0.04 2.12 -0.07 3.21 -0.11 C6.87 0.41 7.95 1.42 10.19 4.31 C10.68 5.8 10.68 5.8 11.19 7.31 C12.42 7.3 13.65 7.29 14.91 7.29 C27.81 7.43 27.81 7.43 31.61 9.87 C33.02 11.62 34.07 13.37 35.19 15.31 C36.18 15.97 37.17 16.63 38.19 17.31 C38.58 19.68 38.58 19.68 38.59 22.62 C38.59 24.2 38.59 24.2 38.6 25.82 C38.59 26.93 38.57 28.04 38.56 29.19 C38.57 30.29 38.59 31.39 38.6 32.53 C38.59 33.59 38.59 34.65 38.59 35.74 C38.58 36.71 38.58 37.69 38.58 38.69 C38.13 41.72 37.15 43.01 35.19 45.31 C34.49 47.36 34.49 47.36 34.12 49.44 C33.19 53.31 33.19 53.31 31.19 55.31 C31 56.98 31 56.98 30.81 58.69 C30.19 62.31 30.19 62.31 28.62 64.75 C25.16 66.97 22.11 67.15 18.19 66.31 C13.78 63.95 13.78 63.95 12.19 61.31 C11.53 57.89 11.44 54.73 12.19 51.31 C13.16 50.29 14.16 49.29 15.19 48.31 C15.44 46.55 15.44 46.55 15.69 44.75 C15.85 43.62 16.02 42.48 16.19 41.31 C17.18 40.65 18.17 39.99 19.19 39.31 C19.41 36.52 19.47 33.97 19.38 31.19 C19.36 30.43 19.35 29.68 19.33 28.9 C19.3 27.04 19.24 25.18 19.19 23.31 C17.27 23.2 15.35 23.13 13.44 23.06 C12.37 23.02 11.3 22.97 10.2 22.92 C7.11 23.07 7.11 23.07 4.87 25.1 C2.69 27.97 2.1 30.86 1.19 34.31 C0.2 34.81 0.2 34.81 -0.81 35.31 C-0.96 36.41 -1.1 37.5 -1.25 38.62 C-1.84 42.47 -2.46 43.42 -4.81 46.31 C-5.92 48.61 -6.86 50.95 -7.81 53.31 C-8.37 53.17 -8.92 53.02 -9.49 52.87 C-12.82 52.07 -16.2 51.51 -19.57 50.91 C-21.81 50.31 -21.81 50.31 -23.81 48.31 C-24.12 45.38 -24.12 45.38 -23.81 42.31 C-23.33 41.85 -22.85 41.38 -22.36 40.91 C-20.41 38.9 -20.21 37.48 -19.75 34.75 C-19.02 30.52 -19.02 30.52 -16.81 28.31 C-16.48 27.16 -16.15 26 -15.81 24.81 C-14.81 21.31 -14.81 21.31 -12.81 19.31 C-12.67 18.2 -12.52 17.09 -12.38 15.94 C-11.79 12.15 -11.08 11.21 -8.81 8.31 C-8.1 5.99 -7.43 3.66 -6.81 1.31 C-5.01 -0.49 -2.43 0.06 0 0 Z " fill="#F0F3F2" transform="translate(494.8125,946.6875)"/>
<path d="M0 0 C1.37 -0 1.37 -0 2.77 -0.01 C7.76 0.07 7.76 0.07 9.81 0.5 C10.47 1.49 11.13 2.48 11.81 3.5 C14.25 5.08 16.74 6.46 19.31 7.81 C24.13 11.06 26.87 15.11 28.81 20.5 C29.47 21.16 30.13 21.82 30.81 22.5 C30.56 26.06 30.56 26.06 29.81 29.5 C26.09 31.36 21.87 31.07 17.81 30.5 C14.66 28.2 13.21 26.59 11.88 22.94 C10 18.64 6.08 17.05 1.94 15.25 C0.89 14.88 0.89 14.88 -0.19 14.5 C0.29 15.06 0.76 15.61 1.25 16.19 C2.81 18.5 2.81 18.5 3.06 20.88 C4.1 24.49 6.26 25.78 9.22 27.97 C11.08 29.76 11.42 30.98 11.81 33.5 C12.47 33.5 13.13 33.5 13.81 33.5 C15.66 37.2 15.27 41.46 14.81 45.5 C13.12 48.38 13.12 48.38 10.81 50.5 C10.13 51.19 9.46 51.88 8.76 52.6 C4.62 55.27 1.2 55.13 -3.62 55.06 C-4.46 55.09 -5.29 55.11 -6.15 55.13 C-10.39 55.12 -13.28 54.88 -16.63 52.15 C-19.19 49.5 -19.19 49.5 -21.62 46.56 C-23.74 44.03 -25.41 42.54 -28 40.62 C-29.99 38.97 -31.03 37.99 -31.84 35.52 C-32.07 32.45 -31.81 30.4 -30.04 27.84 C-27.46 25.38 -25.53 24.52 -22 24.31 C-18.19 25.92 -17.93 27.81 -16.19 31.5 C-14.45 33.2 -12.63 34.7 -10.71 36.2 C-9.19 37.5 -9.19 37.5 -8.19 39.5 C-6.87 39.5 -5.55 39.5 -4.19 39.5 C-3.73 35.65 -3.73 35.65 -5.58 34.04 C-6.5 33.37 -6.5 33.37 -7.44 32.69 C-12.75 28.37 -15.16 24.34 -16 17.5 C-16.32 12.01 -16.59 7.46 -13.27 2.83 C-8.89 -0.49 -5.35 -0.17 0 0 Z " fill="#F0F3F2" transform="translate(410.1875,894.5)"/>
<path d="M0 0 C1.27 -0.01 1.27 -0.01 2.57 -0.02 C8.81 0.04 8.81 0.04 10.9 1.91 C11.57 2.67 11.57 2.67 12.25 3.44 C13.18 3.84 13.18 3.84 14.12 4.25 C17.25 5.99 19.01 8.68 21.25 11.44 C22.24 12.1 23.23 12.76 24.25 13.44 C24.59 15.44 24.92 17.44 25.25 19.44 C25.75 19.91 26.24 20.39 26.75 20.88 C29.49 23.73 28.76 27.49 28.75 31.25 C28.78 32.04 28.81 32.84 28.84 33.66 C28.85 37.8 28.55 40.63 25.97 43.97 C22.36 47.24 22.36 47.24 19.25 47.12 C16.06 46.85 15.05 46.3 12.25 44.44 C9.52 40.34 9.79 38.31 10.25 33.44 C10.46 32.79 10.67 32.15 10.89 31.48 C11.38 28.71 10.58 27.27 9.38 24.75 C9.01 23.96 8.64 23.17 8.26 22.36 C7.4 20.48 7.4 20.48 6.25 19.44 C4.15 19.26 2.04 19.17 -0.06 19.12 C-1.21 19.09 -2.36 19.05 -3.55 19.01 C-6.79 19.19 -6.79 19.19 -9.13 21.09 C-11.72 24.85 -11.41 28.14 -11.28 32.59 C-10.72 35.62 -10.29 36.59 -7.94 38.5 C-6.89 39.14 -5.83 39.78 -4.75 40.44 C-2.81 41.81 -2.81 41.81 -1.75 43.44 C-2.03 48.27 -3.11 52.89 -4.75 57.44 C-6.24 57.93 -6.24 57.93 -7.75 58.44 C-8.41 58.11 -9.07 57.78 -9.75 57.44 C-9.75 56.78 -9.75 56.12 -9.75 55.44 C-10.8 55.38 -11.85 55.31 -12.94 55.25 C-17.46 54.29 -18.95 53.06 -21.75 49.44 C-22.56 46.62 -22.56 46.62 -22.75 44.44 C-23.41 44.44 -24.07 44.44 -24.75 44.44 C-24.86 43.83 -24.97 43.23 -25.08 42.61 C-25.95 37.66 -25.95 37.66 -28.38 33.38 C-30.56 30.3 -30.33 27.09 -29.75 23.44 C-28.38 21.38 -28.38 21.38 -26.75 19.44 C-26.35 17.74 -26.35 17.74 -25.94 16 C-24.4 11.37 -22.6 10.32 -18.75 7.44 C-18.09 6.45 -17.43 5.46 -16.75 4.44 C-11.12 0.41 -6.82 -0.16 0 0 Z " fill="#F0F3F2" transform="translate(984.75,494.5625)"/>
<path d="M0 0 C2.05 0.03 4.1 0.07 6.15 0.1 C6.65 1.58 6.65 1.58 7.15 3.1 C8.76 3.53 8.76 3.53 10.4 3.97 C14.69 5.26 16.4 6.61 19.15 10.1 C19.54 11.75 19.88 13.42 20.15 15.1 C21.14 15.76 22.13 16.42 23.15 17.1 C23.54 19.46 23.54 19.46 23.55 22.4 C23.56 23.99 23.56 23.99 23.56 25.61 C23.55 26.72 23.54 27.83 23.53 28.97 C23.54 30.07 23.55 31.18 23.56 32.31 C23.56 33.37 23.55 34.43 23.55 35.53 C23.55 36.5 23.54 37.47 23.54 38.47 C23.09 41.52 22.14 42.79 20.15 45.1 C19.38 46.46 19.38 46.46 18.59 47.85 C18.12 48.59 17.64 49.33 17.15 50.1 C16.49 50.1 15.83 50.1 15.15 50.1 C14.82 51.09 14.49 52.08 14.15 53.1 C11.85 54.16 9.51 55.16 7.15 56.1 C6.16 56.76 5.17 57.42 4.15 58.1 C1.19 58.4 1.19 58.4 -2.22 58.41 C-3.34 58.43 -4.47 58.44 -5.62 58.46 C-9.15 58.06 -10.95 57.08 -13.85 55.1 C-14.67 54.83 -15.5 54.56 -16.35 54.29 C-19.81 52.64 -21.49 50.07 -23.85 47.1 C-24.84 46.44 -25.83 45.78 -26.85 45.1 C-27.9 43.12 -28.9 41.12 -29.85 39.1 C-30.18 38.77 -30.51 38.44 -30.85 38.1 C-31.13 34.48 -31.08 30.85 -31.1 27.22 C-31.12 26.2 -31.14 25.18 -31.16 24.13 C-31.17 23.15 -31.17 22.18 -31.18 21.17 C-31.19 20.27 -31.19 19.37 -31.2 18.44 C-30.78 15.63 -30.07 14.8 -27.85 13.1 C-25.54 12.1 -25.54 12.1 -22.85 12.1 C-20.11 13.73 -18.68 14.63 -16.85 17.1 C-15.91 21.27 -15.82 24.47 -16.04 28.72 C-15.8 32.92 -14.46 34.87 -11.85 38.1 C-9.39 39.32 -7.65 39.3 -4.91 39.35 C-3.6 39.39 -3.6 39.39 -2.26 39.43 C0.61 39.04 1.29 38.21 3.15 36.1 C3.81 36.1 4.47 36.1 5.15 36.1 C5.46 35.46 5.77 34.82 6.09 34.16 C7.15 32.1 7.15 32.1 8.15 31.1 C8.73 25.56 8.73 25.56 6.53 20.72 C4.16 18.93 4.16 18.93 1.03 18.16 C-1.85 17.1 -1.85 17.1 -3.05 14.89 C-3.94 11.77 -3.9 9.56 -3.54 6.35 C-3.44 5.38 -3.34 4.42 -3.23 3.43 C-2.69 0.14 -2.69 0.14 0 0 Z " fill="#F0F3F2" transform="translate(317.84765625,774.90234375)"/>
<path d="M0 0 C2.36 0.22 2.36 0.22 5 1 C9.61 7.49 9.51 16.23 9.58 23.89 C9.62 25.93 9.8 27.97 10 30 C10.49 30.46 10.99 30.92 11.5 31.39 C14.73 34.85 13.47 41.02 13.44 45.5 C13.47 47.23 13.47 47.23 13.5 49 C13.5 50.1 13.5 51.21 13.5 52.34 C13.5 53.86 13.5 53.86 13.5 55.41 C13 58 13 58 11.14 59.75 C10.43 60.16 9.73 60.58 9 61 C8.11 61.54 7.23 62.07 6.31 62.62 C5.55 63.08 4.79 63.53 4 64 C3.67 64.33 3.34 64.66 3 65 C-0.5 64.69 -0.5 64.69 -4 64 C-4.33 63.34 -4.66 62.68 -5 62 C-5.99 61.5 -5.99 61.5 -7 61 C-9 60 -9 60 -10 58 C-11.98 56.96 -13.98 55.97 -16 55 C-20.85 52.31 -20.85 52.31 -22 50 C-23.65 48.97 -25.32 47.97 -27 47 C-34.57 42.06 -34.57 42.06 -37 40 C-37 39.34 -37 38.68 -37 38 C-38.13 37.69 -39.27 37.38 -40.44 37.06 C-44 36 -44 36 -45 35 C-45.19 32.06 -45.19 32.06 -45 29 C-43 27 -43 27 -40.5 26.56 C-37.65 26.22 -37.65 26.22 -36 23 C-32.93 22.6 -30.95 22.39 -28 23 C-25.5 25.19 -25.5 25.19 -23 28 C-21.77 28.81 -20.52 29.58 -19.25 30.31 C-14.3 33.26 -10.2 37.08 -6 41 C-5.92 38.06 -5.86 35.13 -5.81 32.19 C-5.79 31.35 -5.76 30.52 -5.74 29.66 C-5.72 28.46 -5.72 28.46 -5.71 27.23 C-5.68 26.12 -5.68 26.12 -5.66 24.99 C-6.09 22.46 -7.15 21.72 -9 20 C-9.69 15.95 -9.6 12.06 -9 8 C-6.47 4.52 -5.04 3.35 -1 2 C-0.67 1.34 -0.34 0.68 0 0 Z " fill="#F0F3F2" transform="translate(452,296)"/>
<path d="M0 0 C0.97 0 1.94 0 2.94 0 C4.04 0 5.13 -0 6.26 -0.01 C7.45 0 8.64 0.01 9.87 0.02 C11.69 0.02 11.69 0.02 13.55 0.02 C16.13 0.02 18.7 0.03 21.27 0.04 C25.23 0.06 29.18 0.06 33.14 0.06 C35.63 0.07 38.13 0.07 40.62 0.08 C41.81 0.08 43 0.08 44.23 0.08 C45.87 0.09 45.87 0.09 47.55 0.1 C48.52 0.11 49.49 0.11 50.48 0.11 C52.68 0.25 52.68 0.25 53.68 1.25 C54.49 7.94 54.49 7.94 52.41 11.3 C47.48 17.09 47.48 17.09 43.34 17.45 C42.39 17.49 41.43 17.53 40.44 17.56 C39.39 17.61 38.35 17.65 37.26 17.69 C36.16 17.73 35.06 17.77 33.93 17.81 C32.84 17.85 31.76 17.9 30.64 17.94 C25.65 18.13 20.67 18.27 15.68 18.25 C15.68 18.91 15.68 19.57 15.68 20.25 C16.4 20.49 17.13 20.74 17.88 21 C20.96 22.37 22.99 23.99 25.49 26.25 C26.28 26.95 27.07 27.65 27.89 28.37 C29.68 30.25 29.68 30.25 29.68 32.25 C31 32.91 32.32 33.57 33.68 34.25 C33.68 34.91 33.68 35.57 33.68 36.25 C35 36.91 36.32 37.57 37.68 38.25 C37.73 40.54 37.77 42.83 37.8 45.12 C37.83 46.4 37.85 47.67 37.87 48.99 C37.68 52.25 37.68 52.25 35.68 54.25 C32.37 54.68 32.37 54.68 28.68 54.25 C25.52 51.71 23.96 50.1 22.68 46.25 C21.19 45.75 21.19 45.75 19.68 45.25 C19.68 44.59 19.68 43.93 19.68 43.25 C19.04 42.98 18.4 42.71 17.74 42.43 C15.68 41.25 15.68 41.25 14.68 38.25 C13.19 37.75 13.19 37.75 11.68 37.25 C10.48 35.82 9.29 34.39 8.13 32.93 C6.1 30.58 3.77 28.68 1.38 26.69 C-0.99 24.68 -3.15 22.48 -5.32 20.25 C-5.94 19.75 -6.56 19.26 -7.2 18.75 C-8.32 17.25 -8.32 17.25 -8.01 14.56 C-7.78 13.8 -7.56 13.03 -7.32 12.25 C-6.66 12.25 -6 12.25 -5.32 12.25 C-5.27 11.55 -5.22 10.85 -5.17 10.13 C-5.1 9.22 -5.02 8.31 -4.95 7.37 C-4.88 6.47 -4.81 5.56 -4.74 4.63 C-4.17 1.38 -3.32 0.35 0 0 Z " fill="#F0F3F2" transform="translate(959.3217926025391,754.7527618408203)"/>
<path d="M0 0 C1.94 -0.08 3.87 -0.14 5.81 -0.19 C6.89 -0.22 7.97 -0.26 9.08 -0.29 C12.49 0.05 12.73 0.68 15 3 C17.9 3.51 17.9 3.51 21.06 3.56 C26.79 3.79 26.79 3.79 29 6 C29.17 8.56 29.23 11 29.19 13.56 C29.19 14.26 29.19 14.96 29.19 15.68 C29.14 20.86 29.14 20.86 28 22 C26.49 22.23 24.96 22.41 23.44 22.56 C22.2 22.69 22.2 22.69 20.93 22.82 C20.3 22.88 19.66 22.94 19 23 C19.66 23.66 20.32 24.32 21 25 C21.4 28.09 21.64 30.04 21 33 C17.79 36.76 16.08 37.91 11.12 38.31 C10.09 38.21 9.06 38.11 8 38 C7.5 36.54 7 35.08 6.5 33.62 C6.22 32.81 5.94 32 5.66 31.16 C5 29 5 29 5 27 C1.16 26.77 -1.39 26.7 -4.88 28.44 C-8.42 30.21 -11.24 30.51 -15.14 30.79 C-17.01 30.81 -17.01 30.81 -18 32 C-18.23 34.18 -18.41 36.37 -18.56 38.56 C-18.65 39.76 -18.73 40.96 -18.82 42.19 C-18.88 43.12 -18.94 44.05 -19 45 C-19.96 45.15 -19.96 45.15 -20.94 45.31 C-21.62 45.54 -22.3 45.77 -23 46 C-23.33 46.99 -23.66 47.98 -24 49 C-28 49 -28 49 -29.45 47.6 C-34.55 39.47 -34.98 30.32 -33 21 C-30.59 16.22 -27.94 14.01 -23 12 C-18.59 11.18 -14.23 11.12 -9.76 11.2 C-6.1 11.26 -6.1 11.26 -3.57 9.75 C-1.78 7.75 -1.26 6.43 -0.75 3.81 C-0.5 2.55 -0.25 1.3 0 0 Z " fill="#F0F3F2" transform="translate(1004,543)"/>
<path d="M0 0 C0.82 0.1 1.65 0.21 2.5 0.31 C3.16 1.3 3.82 2.29 4.5 3.31 C5.32 3.81 6.15 4.3 7 4.81 C9.5 6.31 9.5 6.31 11.5 9.31 C11.25 11.94 11.25 11.94 10.5 14.31 C9.84 14.64 9.18 14.97 8.5 15.31 C7.45 17.12 6.46 18.96 5.5 20.81 C2.72 26.2 2.72 26.2 0.5 27.31 C0.21 28.03 -0.08 28.76 -0.38 29.5 C-1.9 33.32 -3.71 37.42 -7.5 39.31 C-8.54 41.29 -9.53 43.3 -10.5 45.31 C-13.19 50.16 -13.19 50.16 -15.5 51.31 C-15.83 52.3 -16.16 53.29 -16.5 54.31 C-17.5 57.31 -17.5 57.31 -19.5 58.31 C-19.83 58.97 -20.16 59.63 -20.5 60.31 C-21.5 62.31 -21.5 62.31 -23.5 63.31 C-24.22 64.96 -24.89 66.62 -25.5 68.31 C-30.11 68.31 -33.43 67.45 -37.5 65.31 C-40 62.62 -40 62.62 -41.5 60.31 C-40.38 57.34 -39.28 54.98 -37.5 52.31 C-36.84 52.31 -36.18 52.31 -35.5 52.31 C-35.44 51.26 -35.38 50.21 -35.31 49.12 C-34.36 44.66 -33.01 43.14 -29.5 40.31 C-28.84 40.31 -28.18 40.31 -27.5 40.31 C-27.41 38.73 -27.41 38.73 -27.31 37.12 C-26.34 32.55 -24.83 31.48 -21.5 28.31 C-20.34 26.24 -19.35 24.15 -18.39 21.98 C-17.5 20.31 -17.5 20.31 -15.5 19.31 C-14.45 17.51 -13.46 15.67 -12.5 13.81 C-9.72 8.42 -9.72 8.42 -7.5 7.31 C-6.48 5.66 -5.48 3.99 -4.5 2.31 C-2.5 0.31 -2.5 0.31 0 0 Z " fill="#F0F3F2" transform="translate(449.5,918.6875)"/>
<path d="M0 0 C4.75 0.75 4.75 0.75 7 3 C7.76 3.29 8.53 3.58 9.31 3.88 C13.62 5.68 16.36 8.13 19.12 11.88 C22.12 15.67 26.18 17.33 30.42 19.49 C32.82 20.9 34.15 22 35.81 24.19 C38.33 27.43 40.33 28.23 44 30 C56.42 38.83 56.42 38.83 57.53 43 C57.45 48.45 57.45 48.45 55.06 51.38 C54.38 51.91 53.7 52.45 53 53 C52.5 53.99 52.5 53.99 52 55 C46.53 54.65 46.53 54.65 44 54 C42.81 52 42.81 52 42 50 C40.34 49.63 38.67 49.3 37 49 C33.41 46.98 31.11 45.14 28.5 41.94 C26.24 38.89 26.24 38.89 23.19 37.6 C18.78 35.39 15.4 32.27 11.68 29.06 C9.14 27.11 6.99 26.07 4 25 C2.56 23.69 2.56 23.69 1 22 C0.01 21.22 -0.98 20.43 -2 19.62 C-4.81 17.16 -6.59 15.45 -8 12 C-6.78 8.89 -4.9 6.39 -2.88 3.75 C-2.07 2.69 -2.07 2.69 -1.24 1.61 C-0.83 1.08 -0.42 0.55 0 0 Z " fill="#F0F3F2" transform="translate(912,839)"/>
<path d="M0 0 C0.27 1.11 0.54 2.23 0.81 3.38 C1.66 7.22 1.66 7.22 5 9 C5.41 11.68 5.41 11.68 5.5 14.88 C5.64 19.46 6.15 21.46 9 25 C9.66 27.29 9.66 27.29 10.06 29.62 C10.65 33.22 10.65 33.22 13 36 C13.35 38.79 13.44 41.56 13.56 44.37 C13.74 47.03 13.74 47.03 15.49 48.49 C17.7 50.7 17.51 52.63 17.69 55.69 C17.79 57.18 17.79 57.18 17.89 58.7 C17.94 59.84 17.94 59.84 18 61 C18.66 61 19.32 61 20 61 C20.62 64.37 20.62 64.37 21 68 C18.31 70.69 15.62 70.98 12 72 C10.51 72.99 10.51 72.99 9 74 C6.31 73.62 6.31 73.62 4 73 C3.81 72.37 3.61 71.75 3.41 71.1 C3.15 70.28 2.89 69.47 2.62 68.62 C2.37 67.81 2.11 67 1.85 66.16 C1.1 63.84 1.1 63.84 -1 62 C-1.34 59.47 -1.44 56.96 -1.56 54.41 C-1.78 51.94 -1.78 51.94 -3.5 50.5 C-6.04 47.96 -5.47 44.8 -5.59 41.38 C-5.77 38.94 -5.77 38.94 -7.5 37.53 C-9.66 35.33 -9.4 33.58 -9.5 30.56 C-9.64 26.17 -10.38 24.44 -13 21 C-13.42 18.39 -13.5 15.88 -13.59 13.24 C-13.73 12.5 -13.86 11.76 -14 11 C-14.99 10.34 -15.98 9.68 -17 9 C-16.8 5.41 -16.21 4.2 -13.56 1.69 C-8.9 -0.52 -5.06 -0.36 0 0 Z " fill="#F0F3F2" transform="translate(532,247)"/>
<path d="M0 0 C0.29 0.63 0.57 1.27 0.87 1.92 C2.23 4.42 3.41 4.96 6 6 C4.38 9.36 2.53 12.54 0.62 15.75 C-2.12 20.42 -4.65 25.12 -7 30 C-7.66 30 -8.32 30 -9 30 C-9.1 31.11 -9.21 32.23 -9.31 33.38 C-9.54 34.57 -9.77 35.77 -10 37 C-10.99 37.66 -11.98 38.32 -13 39 C-13.7 40.99 -14.37 42.99 -15 45 C-15.66 45.66 -16.32 46.32 -17 47 C-17.33 48.01 -17.66 49.02 -18 50.06 C-19 53 -19 53 -21 54 C-21.73 55.69 -22.46 57.38 -23.16 59.08 C-24.49 62.12 -25.8 64.5 -28 67 C-32.5 67.65 -36 67.16 -40 65 C-42.38 63.19 -42.38 63.19 -44 61 C-44 56.46 -41.36 51.82 -39 48 C-38.01 47.5 -38.01 47.5 -37 47 C-36.32 45 -35.65 43 -35 41 C-34.34 40.34 -33.68 39.68 -33 39 C-32.29 37.02 -31.61 35.02 -31 33 C-30.34 33 -29.68 33 -29 33 C-28.75 32.34 -28.5 31.68 -28.25 31 C-24.14 21.14 -24.14 21.14 -21 18 C-20.67 16.99 -20.34 15.98 -20 14.94 C-19 12 -19 12 -17 11 C-16.57 9.36 -16.57 9.36 -16.12 7.69 C-13.41 -1.21 -8.28 -0.51 0 0 Z " fill="#F0F3F2" transform="translate(479,935)"/>
<path d="M0 0 C3.07 3.27 3.45 5.83 3.69 10.25 C3.79 11.87 3.79 11.87 3.89 13.52 C3.92 14.34 3.96 15.16 4 16 C4.99 16.33 5.98 16.66 7 17 C7.1 18.05 7.21 19.1 7.31 20.19 C7.75 23.9 7.75 23.9 9.44 26.38 C11.3 29.51 11.83 32.35 12.47 35.91 C12.95 38.28 12.95 38.28 15 41 C15.26 43.69 15.09 46.29 15 49 C5.51 52.7 5.51 52.7 2 53 C1.01 52.34 0.02 51.68 -1 51 C-4.71 52.24 -6.34 54.2 -9 57 C-10 58 -10 58 -11.81 58.13 C-12.53 58.13 -13.26 58.13 -14 58.12 C-14.72 58.13 -15.44 58.13 -16.19 58.13 C-18 58 -18 58 -19 57 C-19.96 52.95 -20.45 49.15 -20 45 C-18.22 42.84 -16.48 41.73 -14.08 40.31 C-11.03 38.39 -9.77 36.09 -8 33 C-9.22 30.31 -9.22 30.31 -11 28 C-11.24 25.74 -11.38 23.49 -11.52 21.23 C-11.81 18.93 -11.81 18.93 -13.49 17.51 C-16.46 14.54 -15.97 10 -16 6 C-15.62 2.5 -15.62 2.5 -14 0 C-9.27 -2.11 -4.51 -2.92 0 0 Z " fill="#F0F3F2" transform="translate(762,959)"/>
<path d="M0 0 C3.5 0.59 4.28 1.26 6.32 4.07 C6.76 4.71 7.2 5.36 7.66 6.02 C8.1 6.51 8.55 7 9.01 7.5 C12.45 7.32 12.45 7.32 16.01 6.5 C18.85 7.24 21.31 8.32 24.01 9.5 C24.39 14 24.58 16.47 22.38 20.44 C18.48 22.83 16.45 22.76 11.95 22.88 C7.3 22.89 7.3 22.89 3.28 24.79 C2.14 26.7 1.54 28.35 1.01 30.5 C0.81 31.28 0.62 32.06 0.42 32.86 C0.08 34.4 -0.23 35.94 -0.5 37.49 C-0.99 39.5 -0.99 39.5 -2.99 42.5 C-3.1 43.62 -3.2 44.73 -3.3 45.88 C-4.15 50.34 -5.31 51.89 -8.99 54.5 C-12.3 54.32 -12.3 54.32 -14.99 53.5 C-14.99 52.84 -14.99 52.18 -14.99 51.5 C-15.96 51.36 -16.93 51.22 -17.93 51.07 C-20.99 50.5 -20.99 50.5 -21.99 49.5 C-22.14 47.72 -22.21 45.92 -22.24 44.13 C-22.27 43.15 -22.29 42.17 -22.32 41.17 C-21.93 38.03 -21.19 37.61 -18.99 35.5 C-18.53 33.17 -18.53 33.17 -18.49 30.63 C-18.19 26.37 -17.35 24.09 -14.99 20.5 C-14.17 17.86 -13.59 15.21 -12.99 12.5 C-12.33 12.5 -11.67 12.5 -10.99 12.5 C-10.93 11.72 -10.87 10.94 -10.81 10.13 C-10.72 9.12 -10.64 8.11 -10.55 7.07 C-10.47 6.06 -10.39 5.05 -10.31 4.01 C-9.63 -1.39 -4.53 0.01 0 0 Z " fill="#F0F3F2" transform="translate(752.9921875,266.49609375)"/>
<path d="M0 0 C1.16 -0.03 2.33 -0.05 3.52 -0.08 C6.62 0.25 6.62 0.25 8.49 1.46 C10.73 4.99 10.65 9.16 10.62 13.25 C9.69 16.38 9.69 16.38 8.62 18.25 C7.63 18.25 6.64 18.25 5.62 18.25 C4.97 19.57 4.3 20.89 3.62 22.25 C-1.64 21.84 -4.7 21.13 -8.38 17.25 C-9.81 14.88 -10.54 12.95 -11.38 10.25 C-10.72 9.26 -10.05 8.27 -9.38 7.25 C-8.7 5.25 -8.03 3.25 -7.38 1.25 C-5.51 -0.62 -2.5 0.03 0 0 Z " fill="#F0F3F2" transform="translate(819.375,334.75)"/>
<path d="M0 0 C0.96 0.09 1.93 0.18 2.92 0.27 C5.25 0.62 5.25 0.62 6.25 1.62 C6.38 4.12 6.44 6.57 6.44 9.06 C6.45 9.76 6.46 10.45 6.47 11.17 C6.48 12.99 6.37 14.81 6.25 16.62 C4.25 18.62 4.25 18.62 0.77 18.82 C-0.61 18.81 -1.99 18.78 -3.38 18.75 C-4.43 18.74 -4.43 18.74 -5.52 18.72 C-7.26 18.7 -9.01 18.66 -10.75 18.62 C-15.09 10.47 -15.09 10.47 -14.3 6.21 C-13.28 3.99 -12.49 2.36 -10.75 0.62 C-7.08 -0.55 -3.8 -0.38 0 0 Z " fill="#F0F3F2" transform="translate(698.75,974.375)"/>
</svg>
